/* XPM */
static char *result[] = {
/* columns rows colors chars-per-pixel */
"50 50 41 1 ",
"  c #1B370D",
". c #1E3B0E",
"X c #1E3B11",
"o c #213E0D",
"O c #233E11",
"+ c #25430E",
"@ c #28470E",
"# c #27480E",
"$ c #2A4A0F",
"% c #30500F",
"& c #264412",
"* c #294613",
"= c #274812",
"- c #2C4B14",
"; c #2E4C19",
": c #304F15",
"> c #314E19",
", c #2E5114",
"< c #2F5019",
"1 c #325316",
"2 c #365916",
"3 c #395B16",
"4 c #34541A",
"5 c #38571B",
"6 c #36591A",
"7 c #3A5C1B",
"8 c #3C6217",
"9 c #3D611D",
"0 c #365721",
"q c #385620",
"w c #375A22",
"e c #3C5D21",
"r c #3E6121",
"t c #405F1E",
"y c #41641E",
"u c #44691D",
"i c #405F21",
"p c #416421",
"a c #446921",
"s c #496E22",
"d c #4B7223",
/* pixels */
"74>5472><1--27p-;7y14>-$457-41574>5*473p-;7714;**4",
";>:>:75y$,4-:157597**>5O5464574:5*->1412799r-:>5::",
" 54*:1573,-<7:-5571>>*:->67e25-*44&-:341377,>5:5-:",
">y5--$7792;;1-472e-&5O47>>94*;4:y7-;721676p,*-&>5:",
":17:&:741,-4=#=r7-,=7154;&-5>*5>;5647-=197444$:4>>",
"*-*-*:447222,1=r7--9ur>--47754>;;42u9-<4pp;-pyt4;*",
"*&;,**;4r67r8698,7677&:141:4:->-;4=797774$7-14o>>:",
"-&4761626622r996us611*-76,*>&:45;*4-977p1<a954*:i>",
"4*>192,7799,rs9r7uu91-4;41$;-$1*o5*&5p2y86297174:>",
":4>;72<<41r,w9899e99742,>4;3:-* :t@7$4774987144&*>",
"t15777r6+=,,66982<,1723y-7$2,--4977p24>*6ru1$7-44o",
"75e76779-6,2r,,992,-4721474;-$473y4524*o68144;665O",
"O&54;26189r6269927892;1192,76,7<72#455&&4are14,454",
"o&5:;79768r26996-2,,:+-777,77,=.<4-,t2;&6r6157&454",
"*&*714711r9w92r6=1-<-46799726<;-;--,11-<-*--:7;4t1",
"t5456,44r8<,19,-<7<6,-4,,4,=2729126774&4>->1-7263@",
"7<&<r911226797<e,2-61 *:+:772147972266,,82,177:47:",
"4=;4<,287,r2r9r766624&O>24u77t4-7-,62,699989a74*55",
"74rr,<9,r26$96+,62,-,&-;2*--14;-411:,,-,r412755:45",
"*&2891<627=7,+-;O1-#4,=4**>-4$-2272-<,&<r161:::O-+",
"-;ru-=6<,,24-=6=+<4-,<,,::*57-&44514;o-52w5:-5%:;>",
"796p21r69a2-772-;+;14=;;:-157:*-:*;-*-&O,64:55t:*+",
"7r-<r8=2sd66171-=&&;1>-*-:5:4:5-:>&+45+&&7p752t4:-",
"76=6919289<844744-;;&O-::*:&-2;*-::53t1-,771$:4555",
"379r92989w7374741:o***;1*:4*O27>+-7126722-46552;:5",
"9r,8d999a219647->>O>O&1;OO1-O*1t:137;;4-,r44544452",
"9;,rr992++6p7+,=$4o@**::oO4:&-:5-16+==2,22u44::7y:",
"6,e-88r,-ep994,2:t:t5>>>**4:455*+;4&7942429571$445",
"2<7;68r9r726<*-927122>*>751+175+*46*28<84-6ryy:1+5",
"r4<r9978rr&<;&&13$*o>24>$32-4*4>*4;-46w9,,9r1164o4",
"&41<<79r6--4,-;;9,44557-22--- >;;===<8,,r98r>;:t*4",
".77=,29837r671#$e64&o-:45:44:-162=<6<7=,627-*:@14>",
"472-2<9u982,7r76;174<;:e7,9-33,,=<=982<9r6r<#447e4",
";172-7ur<w<4<22926391e714732997<89497-,7a924,7724;",
"*124-7999,676619>t1:,;+;4732689797464-21s9<;7974;&",
"-:*&-1u997,,w9s9O5:**+----2;$99u2e412,999,6-11-44:",
"4-42:779771<-9894--:-45:@41172-p4r14:7u74,9726;&eO",
"--537yp,er9;+6<,2y411>144:2:tt4416r4#;6973uuu7,6OO",
"*551p77-299947<,t4*15*554%:544::77916,997991999957",
"15yye4762=,7,4=-4+O:3:3t1+@i>*55;$791-32796-,979i:",
"y7474-272O#<==;<4$&1t4tt,1;;172926464*4:76-4,7661>",
"54&-9772<,#7=2<45>:4t1451-,7,4r66<;,445:2p&+u1+151",
"4o>4p9y7826737761:5734@59276;<p1,<17e45575549r<-pt",
"11799722<-997457$-:51i->2797796;<749-4257-4*672-5e",
"*o525>+1727,&,27774--:o**576974;.;72:-&44:1444<4-&",
"*;732@*597<w9y7au7;+51:-4> ;y7,*-7524:*4144;&6-;-;",
"574t244u8r779==275:65t:o*4-;5i:454327t-*:51$676,-&",
"55**e:$,99276+.-7p75271:5> *54@4t-*5t4>-@57ew,7<,1",
"4>+>5&&+5t:2t2::574#14771&;71i44:+;6442**57>*16674",
"444ty:::>:227y4t-44444;164-553541475477:e->5424><6"
};
