/* XPM */
static char *result[] = {
/* columns rows colors chars-per-pixel */
"50 50 85 1 ",
"  c #3CB235",
". c #3DB336",
"X c #3EB336",
"o c #3FB437",
"O c #3DBF36",
"+ c #40B339",
"@ c #42B53A",
"# c #42B73A",
"$ c #43B63B",
"% c #43B63C",
"& c #44B63D",
"* c #45B63E",
"= c #46B63E",
"- c #41BE3A",
"; c #3FD436",
": c #40C037",
"> c #40C339",
", c #46C43F",
"< c #40D337",
"1 c #40D437",
"2 c #41D437",
"3 c #43D23A",
"4 c #43D33A",
"5 c #41D538",
"6 c #42D539",
"7 c #43D53A",
"8 c #44D53A",
"9 c #44D63A",
"0 c #44D63B",
"q c #45D63C",
"w c #46D73D",
"e c #47D73E",
"r c #48D23F",
"t c #48D83D",
"y c #48D83E",
"u c #49D83F",
"i c #47B840",
"p c #48B841",
"a c #4CBA44",
"s c #4EBA46",
"d c #4EBB47",
"f c #4FBB47",
"g c #4FBC48",
"h c #50BC48",
"j c #51BD48",
"k c #51BC49",
"l c #51BD49",
"z c #50BE48",
"x c #52BD4A",
"c c #49C341",
"v c #4FC746",
"b c #4CCA43",
"n c #4ECA45",
"m c #51C348",
"M c #51C749",
"N c #51CD48",
"B c #53CC4A",
"V c #54C84C",
"C c #4AD642",
"Z c #49D840",
"A c #4AD941",
"S c #4BD942",
"D c #4CD942",
"F c #4DDA43",
"G c #4EDA44",
"H c #4EDB45",
"J c #4FDB46",
"K c #50DB46",
"L c #51DC47",
"P c #56D34C",
"I c #53DB4A",
"U c #52DC48",
"Y c #52DD49",
"T c #53DD4A",
"R c #54DD49",
"E c #54DD4A",
"W c #55DE4B",
"Q c #57DD4D",
"! c #56DE4C",
"~ c #57DE4D",
"^ c #57DF4E",
"/ c #58DF4E",
"( c #59E04F",
") c #5AE050",
"_ c None",
/* pixels */
"______________________11111_______________________",
"_____________________1111111______________________",
"_____________________1111111______________________",
"_____________________1111111______________________",
"_____________________1111111______________________",
"_____________________1111111______________________",
"__________________211111111111____________________",
"_______________;11111111111111111_________________",
"______________111111111111111111111_______________",
"____________<11111111111111111111111<_____________",
"___________111111111111111111111111111____________",
"___________1111111111111111111111111111___________",
"__________111111111  1111111O1111111111___________",
"__________11111111 __1111111_ 111111111___________",
"_________555555555___5555555__.555555555__________",
"_________666666666___6666666___:6666666X__________",
"_________777777777___7777777____>777774___________",
"_________999999999___9999999_____o893o____________",
"_________0000000000__0000000_______+______________",
"_________-qqqqqqqqqqqqqqqqqq______________________",
"__________wwwwwwwwwwwwwwwwww______________________",
"__________@eeeeeeeeeeeeeeeeee_____________________",
"___________#yyyyyyyyyyyyyyyyyyyt__________________",
"____________$uuuuuuuuuuuuuuuuuuuuu________________",
"_____________%rZZZZZZZZZZZZZZZZZZZZZ______________",
"_______________&,AAAAAAAAAAAAAAAAAAAAA____________",
"_________________**CSSSSSSSSSSSSSSSSSSS___________",
"____________________=DDDDDDDDDDDDDDDDDDD__________",
"_____________________FFFFFFFFFFFFFFFFFFFF_________",
"_____________________GGGGGGGcGGGGGGGGGGGG_________",
"_____________________HHHHHHH__iHHHHHHHHHH_________",
"__________JJJJJ______JJJJJJJ___pJJJJJJJJJ_________",
"_________KKKKKKK_____KKKKKKK____KKKKKKKKKb________",
"_________LLLLLLL_____LLLLLLL____LLLLLLLLL_________",
"________nUUUUUUUU____UUUUUUU____UUUUUUUUU_________",
"_________YYYYYYYYY___YYYYYYY____YYYYYYYYY_________",
"_________TTTTTTTTTR__TTTTTTT___TTTTTTTTTI_________",
"_________vEEEEEEEEEE_EEEEEEE__EEEEEEEEEEa_________",
"__________WWWWWWWWWWWWWWWWWWWWWWWWWWWWWN__________",
"__________s!!!!!!!!!!!!!!!!!!!!!!!!!!!!___________",
"___________s~~~~~~~~~~~~~~~~~~~~~~~~~Qs___________",
"____________dM^^^^^^^^^^^^^^^^^^^^^^dg____________",
"______________fB//////////////////mf______________",
"________________hhP((((((((((((zhh________________",
"___________________lk)))))))Vkj___________________",
"_____________________)))))))______________________",
"_____________________)))))))______________________",
"_____________________)))))))______________________",
"_____________________k)))))k______________________",
"______________________xkkkk_______________________"
};
