/* XPM */
static char *result[] = {
/* columns rows colors chars-per-pixel */
"50 50 207 2 ",
"   c #1F1E1E",
".  c #201F1F",
"X  c #20201F",
"o  c #242423",
"O  c #282726",
"+  c #2D2824",
"@  c #2C2C2B",
"#  c #302C28",
"$  c #36322D",
"%  c #343433",
"&  c #3C3C3B",
"*  c #393837",
"=  c #661B21",
"-  c #5E3B3D",
";  c #6D242B",
":  c #752C33",
">  c #702F34",
",  c #40403F",
"<  c #223E6B",
"1  c #3F454F",
"2  c #3F4753",
"3  c #1C507C",
"4  c #2D4466",
"5  c #354B6C",
"6  c #2E5477",
"7  c #3A627D",
"8  c #444443",
"9  c #4A4A4A",
"0  c #4A4744",
"q  c #534F4B",
"w  c #52514F",
"e  c #5A5A5A",
"r  c #585755",
"t  c #605F5F",
"y  c #615453",
"u  c #60605F",
"i  c #4C576B",
"p  c #47667C",
"a  c #556A7D",
"s  c #5D707E",
"d  c #5F6160",
"f  c #646363",
"g  c #686767",
"h  c #6D6C6C",
"j  c #686867",
"k  c #736969",
"l  c #74726F",
"z  c #636B77",
"x  c #757575",
"c  c #797776",
"v  c #7B7A75",
"b  c #7D7C7C",
"n  c #76797A",
"m  c #921219",
"M  c #AE0B1A",
"N  c #B51920",
"B  c #BA2328",
"V  c #A12A25",
"C  c #982D2A",
"Z  c #C1352D",
"A  c #C4352F",
"S  c #CB453C",
"D  c #A23D4A",
"F  c #9C3744",
"G  c #B9574C",
"H  c #AE5349",
"J  c #845F62",
"K  c #827D7C",
"L  c #846164",
"P  c #C95848",
"I  c #D45C49",
"U  c #D76B58",
"Y  c #CC6B58",
"T  c #82817C",
"R  c #89876C",
"E  c #E38E73",
"W  c #E69278",
"Q  c #E1856C",
"!  c #085887",
"~  c #1A5A81",
"^  c #2C5787",
"/  c #0A659B",
"(  c #166797",
")  c #25668A",
"_  c #396483",
"`  c #376988",
"'  c #3B6696",
"]  c #23709C",
"[  c #2C7199",
"{  c #327398",
"}  c #3E7097",
"|  c #2A6795",
" . c #1C5BA6",
".. c #1A75AA",
"X. c #1C7CB5",
"o. c #1C77B2",
"O. c #116EA5",
"+. c #2272A5",
"@. c #316FB6",
"#. c #3B76BA",
"$. c #3169A7",
"%. c #44718B",
"&. c #597789",
"*. c #4E7592",
"=. c #697A86",
"-. c #797D82",
";. c #4F76A9",
":. c #667FB4",
">. c #6578A6",
",. c #817F81",
"<. c #1E81BC",
"1. c #2981BD",
"2. c #5E8195",
"3. c #7C8288",
"4. c #698798",
"5. c #768E9D",
"6. c #7C909C",
"7. c #5087B4",
"8. c #6781B5",
"9. c #6A93B8",
"0. c #258CCC",
"q. c #2789C8",
"w. c #338FCE",
"e. c #3187C5",
"r. c #3E90CD",
"t. c #288FD0",
"y. c #308FD0",
"u. c #2B91D2",
"i. c #4884C2",
"p. c #4992CD",
"a. c #4791CD",
"s. c #5696CE",
"d. c #548AC7",
"f. c #769BC6",
"g. c #669CD1",
"h. c #6D9CD3",
"j. c #6C95CB",
"k. c #78A5D4",
"l. c #7AA6D9",
"z. c #848384",
"x. c #888686",
"c. c #8B8A8B",
"v. c #878789",
"b. c #9D9589",
"n. c #928F90",
"m. c #8C939B",
"M. c #959393",
"N. c #9C9C9B",
"B. c #9A9996",
"V. c #8D8B8E",
"C. c #A09E9F",
"Z. c #B1AD8F",
"A. c #8797A5",
"S. c #9A9DA1",
"D. c #808CA4",
"F. c #A39FA0",
"G. c #9AA3AA",
"H. c #A4A4A4",
"J. c #ACABAC",
"K. c #A9A8A6",
"L. c #B7B5AA",
"P. c #B1AFB0",
"I. c #B4B4B5",
"U. c #BABBBC",
"Y. c #B8B8B7",
"T. c #A8AEB3",
"R. c #C88A93",
"E. c #C0BEBE",
"W. c #ECA488",
"Q. c #D4D0B0",
"!. c #E1DDB9",
"~. c #FDF6B9",
"^. c #F4EDB4",
"/. c #86A5C8",
"(. c #85A8D8",
"). c #8DB1DA",
"_. c #97B4D8",
"`. c #97B3CF",
"'. c #BFBFC0",
"]. c #A4BDDB",
"[. c #99B7E2",
"{. c #B1C6DD",
"}. c #A7C0E2",
"|. c #A8C1E3",
" X c #A8C5E9",
".X c #B9CBE3",
"XX c #C3C2C3",
"oX c #CBCACB",
"OX c #C8C7C7",
"+X c #D4D4D4",
"@X c #DBDBDB",
"#X c #D8D7D7",
"$X c #D0CFCE",
"%X c #E1DED0",
"&X c #F1ECC9",
"*X c #E8E6D8",
"=X c #FFFBD0",
"-X c #FEFBDB",
";X c #F8F4D7",
":X c #FEFACF",
">X c #C6D5EC",
",X c #C8D6ED",
"<X c #C3D3E7",
"1X c #E0DFE0",
"2X c #E3E3E3",
"3X c #EBEBEB",
"4X c None",
/* pixels */
"4X4X4X4X4X4X4X4X4X4X4X4X4X4X4X4X4X4X4X4X4X4X4X4X4X4X4X4X4X4X4X4X4X4X4X4X4X4X4X4X4X4X4X4X4X4X4X4X4X4X",
"4X4X4X4X4X4X4X4X4X4X4X4X4X4X4X4X4X4X4X4X4X4X4X4X4X4X4X4X4X4X4X4X4X4X4X4X4X4X4X4X4X4X4X4X4X4X4X4X4X4X",
"4X4X4X4X4X4X4X4X4X4X4X4X4X^ :.:.:.:.j.:.:.:.:.,.M.M.c.H G G G G G G G H C 4X4X4X4X4X4X4X4X4X4X4X4X4X",
"4X4X4X4X4X4X4X4X4X4X4X4X^ ;.[.(.j.(.[.j.j.[./.m.S.N.b.Y E I Y W Q P U E P m 4X4X4X4X4X4X4X4X4X4X4X4X",
"4X4X4X4X4X4X4X4X4X4X4X4X~ d. Xg.@.l.}.i.#.[.j.z h x k P W A A W Q B S W.I m 4X4X4X4X4X4X4X4X4X4X4X4X",
"4X4X4X4X4X4X4X4X4X4X4X4X3 $.7.@. .#.i.$. .;.;.i e e y V B N M A Z M N S B m 4X4X4X4X4X4X4X4X4X4X4X4X",
"4X4X4X4X4X4X4X4X4X4X4X4X4X< 4 4 < < 5 5 6 5 5 i e e r > : : > > ; ; ; ; = 4X4X4X4X4X4X4X4X4X4X4X4X4X",
"4X4X4X4X4X4X4X4X4X4X4X4X4X4X8 u k K K x.,.V.,.,.z.v.3.z.x.x.z.-.n h f 9 * 4X4X4X4X4X4X4X4X4X4X4X4X4X",
"4X4X4X4X4X4X4X4X4X4X4X4X4XM.c.n.v.s a p 7 7 _ _ ` _ _ _ 7 7 p p s =.z.c.z.x.4X4X4X4X4X4X4X4X4X4X4X4X",
"4X4X4X4X4X4X4X4X4X4X4XM.c.&.7 ^ { ;.9./.`.{.{..X<X>X.X.X{.`.`.9.7.} ^ 6 p 3.v.T 4X4X4X4X4X4X4X4X4X4X",
"4X4X4X4X4X4X4X4X4X4Xc.&.3 | 9._.{.<X>X>X,X,X>X,X>X>X>X>X,X,X,X,X<X.X].f.{ ~ 6 n K 4X4X4X4X4X4X4X4X4X",
"4X4X4X4X4X4X4X4X4Xc.p 3 7.).}.|.|.}.}.}.}.}.}.].}.}.}.}.}.}.}.}.}.}.|.}.}.f.( 6 -.4X4X4X4X4X4X4X4X4X",
"4X4X4X4X4X4X4X4X4Xc.~ ..(.).).).).).).).).).).).).).).).).).).).).).).).).).7.! s z.4X4X4X4X4X4X4X4X",
"4X4X4X4X4X4X4X4Xm.3.! 7.k.k.k.l.k.k.k.k.k.k.k.k.k.k.k.k.k.k.k.k.k.k.k.k.l.l.g.O.7 x.4X4X4X4X4X4X4X4X",
"4X4X4X4X4X4X4X4XN.&./ p.g.g.g.g.g.g.g.g.g.g.g.g.g.g.g.g.g.g.g.g.g.g.g.g.g.g.g.o.~ v.4X4X4X4X4X4X4X4X",
"4X4X4X4X4X4X4X4XN.` O.p.s.s.s.s.s.s.s.s.s.s.s.s.s.s.s.s.s.s.s.s.s.s.s.s.s.s.s.1.! 3.c.4X4X4X4X4X4X4X",
"4X4X4X4X4X4X4X4XC.) X.a.p.p.p.p.a.a.p.p.p.p.p.p.p.p.p.p.p.p.p.p.a.a.p.p.p.p.p.e./ 2.b.4X4X4X4X4X4X4X",
"4X4X4X4X4X4X4XF.N.( <.r.r.r.r.r.r.r.r.r.r.r.r.r.r.r.r.r.r.r.r.r.r.a.r.r.r.r.r.e.O.s B.4X4X4X4X4X4X4X",
"4X4X4X4X4X4X4XJ.m.( q.r.w.r.w.w.r.w.w.w.w.w.w.w.w.w.w.w.w.w.w.w.w.w.w.w.w.w.w.w...%.N.4X4X4X4X4X4X4X",
"4X4X4X4X4X4X4XP.6.O.q.u.w.u.w.u.y.u.w.w.y.y.w.w.w.y.w.w.w.y.y.w.y.y.w.y.w.y.w.y.X.` N.4X4X4X4X4X4X4X",
"4X4X4X4X4X4X4XT.4...0.u.u.u.u.u.u.u.u.u.u.u.u.u.u.u.u.t.u.u.u.u.u.u.u.u.u.u.u.y.<.| S.4X4X4X4X4X4X4X",
"4Xw c b r 4X4XQ.2.o.t.u.t.t.u.t.0.0.0.0.0.0.0.0.0.0.0.0.0.0.0.0.0.t.t.u.u.u.u.t.q.) S.B.4X0 l K y 4X",
"4X9 t e w + 4XoX2.O.<.<.<.X.X.+.+.] ] ] [ [ [ ` { { { { [ [ [ [ ] ] ] ....<.X.<...) G.S.4X0 e e r $ ",
"4X@ @ $ @ + B.1XG.` { 2.2.5.A.A.G.T.T.Y.U.U.U.{.U.U.U.Y.I.I.T.T.G.G.A.6.4.2.&.%.` 2.Q.H.* # % @ # # ",
"4X+ + + + K +X3X2X#X+X@X@X*X1X1X1X1X1X1X*X@X@X@X@X#X#X#X#X#X#X#X+X+X+X$XoXoXOX{.'.OX$XOXc.$ + # + 4X",
"4X4X4X4X4X$X3X3X3X3X3X2X2X2X2X2X1X1X@X1X@X@X@X#X#X#X#X#X+X+X+X+X+X$X+X+X+X+X+X$X$X+X+X$XQ.4X4X4X4X4X",
"4X4X4X4XI.2X3X@X#X1X3X2X2X3X1X1X1X1X@X@X@X@X#X@X#X#X#X+X+X+X+X+X+X+X+X+X+X$X+X+XoX'.OX$XoXH.4X4X4X4X",
"4X4X4X4XoX2XC.B.Y.L.U.1X2X2X2X1X1X1X1X@X@X@X@X@X@X#X#X#X+X#X+X+X+X+X+X+X+X+X$XI.z.K.Y.K.'.I.4X4X4X4X",
"4X4X4X4X#XY.L.&X-X*XK.'.2X2X2X2X1X@X@X@X@X@X#X#X#X#X#X+X+X+X+X+X+X+X#X+X+X$XOXM.!.;X-X$XN.L.4X4X4X4X",
"4X4X4X4X+XL.&X-X-X-X!.L.2X2XoXB.oX+X+X#X+X#X+X+X+X+X+X+X+X+X+X$XoXE.n.Y.+X+XU.Q.-X-X-X=XL.J.4X4X4X4X",
"4X4X4X4X2XL.&X=X:X:X!.L.2X3Xn X x J.d f u u u u t t u u u f d d K.v X f +X+XQ.L.:X:X=X=XL.Y.H.4X4X4X",
"4X4X4Xf c.v Z.~.~.^.Z.n c.c.9 o f U.z z z T c.c.c.x.c.c.K J L k E.h o 1 b 3.x R !.~.~.Q.v x e 4X4X4X",
"4X4X    o O 8 R Z.b.w O o o o O g D.;.f.%.i f f f f f f F S U B R.k O o o X o % e R Z.R * o     4X4X",
"4X4X  @ % % % * 9 8 % % % % O O f D.' j.' _ ,.,.,.,.,.,.D S U B R.z O O % $ % % & q 9 & % % O   4X4X",
"4X4Xo & 8 8 8 8 8 , 8 , 8 8 % o f F.2 9 2 y g g g g g g y - - - F.g O @ 1 , 1 1 , , , , 8 8 , o 4X4X",
"4X4XO w r e e e e e e e e r * O 8 m.n n K K x x x x x x x n n n M.9 O % r r r e u e e e e r w O 4X4X",
"4X4X. % & & & & & & & & & & @ o o 8 h h h h l h h h h h h h h h 1 O o O & & - % & & & & & & % X 4X4X",
"4X4X  O @ @ @ @ @ @ @ @ @ O o   o o     o       . . . . . . . . o o . . O @ @ @ @ @ @ @ @ @ o o 4X4X",
"4X4X* o @ @ @ @ @ @ @ @ @ X     . . . .       . . . . . . . . . . . . . . @ @ @ @ % @ @ @ @ o 8 4X4X",
"4X4Xz.@ o @ @ @ @ @ @ @ @           .           . . . . . . . . .       . O @ @ O @ O @ @ o $ 3.4X4X",
"4X4XJ.z.$ @ @ @ @ @ @ @ @ O o o o o o o X o o o o o o o o o o o o o o o O @ @ @ @ @ @ @ @ @ n C.4X4X",
"4X4X4XOXOXE.E.U.U.U.Y.Y.Y.I.P.J.J.J.K.K.K.H.H.H.H.H.F.H.H.H.C.H.C.H.S.F.H.H.K.H.T.K.K.H.H.J.Y.b 4X4X",
"4X4X4Xe x n n c n h v.I.P.I.P.J.P.J.J.J.T.J.K.J.K.K.K.K.H.H.K.H.H.H.H.H.H.H.H.v.f h h j h j e % 4X4X",
"4X4X4X@ % % % % % @ 4X4X4X4X4X4X4X4X4X4X4X4X4X4X4X4X4X4X4X4X4X4X4X4X4X4X4X4X4X4XX @ % % % $ O X 4X4X",
"4X4X4X@ & , 1 , & @ 4X4X4X4X4X4X4X4X4X4X4X4X4X4X4X4X4X4X4X4X4X4X4X4X4X4X4X4X4X4Xo % * * * % @ o 4X4X",
"4X4X4XO $ % $ % $ O 4X4X4X4X4X4X4X4X4X4X4X4X4X4X4X4X4X4X4X4X4X4X4X4X4X4X4X4X4X4Xo @ % % % @ o 4X4X4X",
"4X4X4X4XO O O O o 4X4X4X4X4X4X4X4X4X4X4X4X4X4X4X4X4X4X4X4X4X4X4X4X4X4X4X4X4X4X4X4X4XO @ O o 4X4X4X4X",
"4X4X4X4X4X4X4X4X4X4X4X4X4X4X4X4X4X4X4X4X4X4X4X4X4X4X4X4X4X4X4X4X4X4X4X4X4X4X4X4X4X4X4X4X4X4X4X4X4X4X",
"4X4X4X4X4X4X4X4X4X4X4X4X4X4X4X4X4X4X4X4X4X4X4X4X4X4X4X4X4X4X4X4X4X4X4X4X4X4X4X4X4X4X4X4X4X4X4X4X4X4X",
"4X4X4X4X4X4X4X4X4X4X4X4X4X4X4X4X4X4X4X4X4X4X4X4X4X4X4X4X4X4X4X4X4X4X4X4X4X4X4X4X4X4X4X4X4X4X4X4X4X4X"
};
