/* XPM */
static char *result[] = {
/* columns rows colors chars-per-pixel */
"50 50 55 1 ",
"  c black",
". c #010101",
"X c #020100",
"o c #020200",
"O c #020203",
"+ c #08080A",
"@ c #0A090B",
"# c #0C0B0D",
"$ c #0C0B0E",
"% c #130B00",
"& c #100C00",
"* c #140F01",
"= c #121115",
"- c #131116",
"; c #161419",
": c #16151A",
"> c #18161C",
", c #18171D",
"< c #332501",
"1 c #1D1B21",
"2 c #26232D",
"3 c #28242F",
"4 c #2A2732",
"5 c #2B2733",
"6 c #6F5308",
"7 c #745502",
"8 c #775802",
"9 c #0D3554",
"0 c #3B3944",
"q c #3C3A45",
"w c #3D3B46",
"e c #3E3B47",
"r c #125967",
"t c #524E5D",
"y c #555160",
"u c #7E7E7F",
"i c #906A03",
"p c #A97D03",
"a c #AC7F03",
"s c #BB8A04",
"d c #E18000",
"f c #E38100",
"g c #E38200",
"h c #E48300",
"j c #F9B706",
"k c #FBB905",
"l c #FDBA05",
"z c #FEBC05",
"x c #FFBC05",
"c c #1967A3",
"v c #1A6BA5",
"b c #209ABE",
"n c #23AEC8",
"m c #EDEDEE",
"M c None",
/* pixels */
"MMMMMMMMMMMMMMMMMMMMMMMMMMMMMMMMMMMMMMMMMMMMMMMMMM",
"MMMMMMMMMMMMMMMMMMMMMMMMMMMMMMMMMMMMMMMMMMMMMMMMMM",
"MMMMMMMMMMMMMMMMMMMMMMMMMMMMMMMMMMMMMMMMMMMMMMMMMM",
"MMMMMMMMMMMMMMMMMMMMMMMMMMMMMMMMMMMMMMMMMMMMMMMMMM",
"MMMMMMMMMMMMMMMMMMMMMMMMMMMMMMMMMMMMMMMMMMMMMMMMMM",
"MMMMMMMMMM                             MMMMMMMMMMM",
"MMMMMMMMMM                              MMMMMMMMMM",
"MMMMMMMMM  xxxxxxxxxxxxxxxxxxxxxxxxxxx  MMMMMMMMMM",
"MMMMMMMMM oxx                        xx  MMMMMMMMM",
"MMMMMMMM  xx                          x  MMMMMMMMM",
"MMMMMMMM  xx  nnnnnnnnnnnnnnnnnnvccc  xx  MMMMMMMM",
"MMMMMMMM xxi nnnnnnnnnnnnnnnnnncccccc ix  MMMMMMMM",
"MMM MMM  xx  nnnnnnnnnnnnnnnnnccccccc  xx  MMM MMM",
"M     M sxx rnnnnnnnnnnnnnnnbcccccccc9 xx  M     M",
"  xxx   xx  nnnnnnnnnnnnnnnccccccccccc  xx   xxx  ",
"  xxf  &xx  nnnnnnnnnnnnnccccccccccccc  xx   xxh  ",
"M      xx7 nnnnnnnnnnnncccccccccccccccc 7xx      M",
"MMMMM  xx                                xx  MMMMM",
"MMMM  xxxxxxxxxxxxxxxxxxxxxxxxxxxxxxxxxxxxxx  MMMM",
"MMM  xxxxxxxxxxxxxxxxxxxxxxxxxxxxxxxxxxxxxxxx  MMM",
"MM  xxxxxxxxxxxxxxxxxxxxxxxxxxxxxxxxxxxxxxxxxx  MM",
"M  xxxxxxxxxxxxxxxxxxxxxxxxxxxxxxxxxxxxxxxxxxxx  M",
"  xxxxxxxxxxxxxxxxxxxxxxxxxxxxxxxxxxxxxxxxxxxxxx  ",
"  xk     xxxxxxx                  xxxxxxx     kx  ",
"  x       Xxxxx                    xxxxX       x  ",
"  x  mmmm  zxx  >  55  5  5  55  >  xxz  mmmm  x  ",
"  x  mmmmm  x  ,5  55  5  5  55  5,  x  mmmmm  x  ",
"  x8 .uuuu  xj 55  55  5  5  55  55 jx  uuuu. 8x  ",
"  xx        ax  55 55  5  5  55 55  xp        xg  ",
"  xxxxxxxxxxxx  55 15  5  5  51 55  xxxxxxxxxxff  ",
"  xxxxxxxxxxxxx 25  5  5  5  5  52 xxxxxxxxxxfff  ",
"  x          xx  5  5  5  5  5  5  xx          f  ",
"  x  -------  x. 5O 5@ 5  5 +5 O5 .x  -------  f  ",
"  x  5555555  xx =5 5: 5  5 ;5 5= xx  5555555  f  ",
"  x  55555555 <x  5 $4 5  5 3# 5  x< 55555555  f  ",
"  x            x6                6x            f  ",
"  xl          *xx                xx%          df  ",
"  xxxxxxxxxxxxxxxxxxxxxxxxxxxxxxffffffffffffffff  ",
"M                                                M",
"MM                                              MM",
"MMM  ye000  MMMMMMMMMMMMMMMMMMMMMMMMMM  ye000  MMM",
"MMM  yyyw0  MMMMMMMMMMMMMMMMMMMMMMMMMM  yyyq0  MMM",
"MMM  yyyyt  MMMMMMMMMMMMMMMMMMMMMMMMMM  yyyyt  MMM",
"MMMM       MMMMMMMMMMMMMMMMMMMMMMMMMMMM       MMMM",
"MMMM       MMMMMMMMMMMMMMMMMMMMMMMMMMMM       MMMM",
"MMMMMMMMMMMMMMMMMMMMMMMMMMMMMMMMMMMMMMMMMMMMMMMMMM",
"MMMMMMMMMMMMMMMMMMMMMMMMMMMMMMMMMMMMMMMMMMMMMMMMMM",
"MMMMMMMMMMMMMMMMMMMMMMMMMMMMMMMMMMMMMMMMMMMMMMMMMM",
"MMMMMMMMMMMMMMMMMMMMMMMMMMMMMMMMMMMMMMMMMMMMMMMMMM",
"MMMMMMMMMMMMMMMMMMMMMMMMMMMMMMMMMMMMMMMMMMMMMMMMMM"
};
