/* XPM */
static char *result[] = {
/* columns rows colors chars-per-pixel */
"50 50 201 2 ",
"   c #0B040A",
".  c #060107",
"X  c #1B0409",
"o  c #140C14",
"O  c #1C0D16",
"+  c #1B131A",
"@  c #1F181D",
"#  c #220206",
"$  c #2C0409",
"%  c #2C0F0E",
"&  c #260609",
"*  c #33060B",
"=  c #3C070C",
"-  c #35090C",
";  c #3D0A0D",
":  c #2F170E",
">  c #36190C",
",  c #240C11",
"<  c #2A0C11",
"1  c #360E13",
"2  c #241216",
"3  c #2B1112",
"4  c #24151B",
"5  c #2A1A1E",
"6  c #321514",
"7  c #3A1B13",
"8  c #371C19",
"9  c #39221D",
"0  c #2F201D",
"q  c #271720",
"w  c #251B22",
"e  c #2B1A21",
"r  c #231F2D",
"t  c #341F24",
"y  c #26222E",
"u  c #2C252A",
"i  c #362125",
"p  c #3B2523",
"a  c #3C262B",
"s  c #36292A",
"d  c #282431",
"f  c #342C32",
"g  c #3A2F35",
"h  c #3A3339",
"j  c #2E303F",
"k  c #430A0E",
"l  c #49080E",
"z  c #450D11",
"x  c #4C0C11",
"c  c #530E13",
"v  c #580F14",
"b  c #4C1317",
"n  c #5B1115",
"m  c #5D1E1D",
"M  c #621317",
"N  c #651418",
"B  c #6C161A",
"V  c #6B1212",
"C  c #72171A",
"Z  c #73191C",
"A  c #7B1B1D",
"S  c #4C2A14",
"D  c #442315",
"F  c #59281D",
"G  c #4A311E",
"H  c #59371E",
"J  c #4B290F",
"K  c #633E1E",
"L  c #4B2E2D",
"P  c #452A28",
"I  c #4C322C",
"U  c #593821",
"Y  c #53332D",
"T  c #523A27",
"R  c #473638",
"E  c #523532",
"W  c #5B3B34",
"Q  c #573937",
"!  c #4B292C",
"~  c #652621",
"^  c #613D23",
"/  c #763229",
"(  c #643E38",
")  c #742D27",
"_  c #5B423A",
"`  c #664226",
"'  c #694526",
"]  c #6D4826",
"[  c #734D29",
"{  c #7A542F",
"}  c #76512C",
"|  c #6B423C",
" . c #67413C",
".. c #78443F",
"X. c #363743",
"o. c #473D42",
"O. c #473D51",
"+. c #3F434D",
"@. c #494449",
"#. c #584746",
"$. c #564D52",
"%. c #4A535C",
"&. c #5C5254",
"*. c #5C5459",
"=. c #575054",
"-. c #454650",
";. c #7B4E49",
":. c #784B45",
">. c #6A514A",
",. c #725B41",
"<. c #635A5D",
"1. c #64595C",
"2. c #6B4740",
"3. c #77635C",
"4. c #545B60",
"5. c #645D61",
"6. c #5E6669",
"7. c #6C6467",
"8. c #726769",
"9. c #7C7275",
"0. c #7B767A",
"q. c #687776",
"w. c #811D1F",
"e. c #831E20",
"r. c #8C2123",
"t. c #852021",
"y. c #942425",
"u. c #9A2727",
"i. c #9D2728",
"p. c #9E2828",
"a. c #A12929",
"s. c #855D31",
"d. c #8C6433",
"f. c #936A36",
"g. c #9A6F37",
"h. c #986E3A",
"j. c #9B7037",
"k. c #9C713A",
"l. c #83534E",
"z. c #945E46",
"x. c #8E5C56",
"c. c #AF5A51",
"v. c #9E7846",
"b. c #857354",
"n. c #99644D",
"m. c #A27B47",
"M. c #A57E48",
"N. c #B06754",
"B. c #9A786A",
"V. c #866B62",
"C. c #A47D6E",
"Z. c #BA7063",
"A. c #C9775E",
"S. c #C97C65",
"D. c #A88B79",
"F. c #B48D78",
"G. c #C98868",
"H. c #D48766",
"J. c #CD8D75",
"K. c #D6927E",
"L. c #DA9673",
"P. c #C99577",
"I. c #E39E74",
"U. c #DCA27D",
"Y. c #E7A378",
"T. c #747880",
"R. c #867E81",
"E. c #7B8486",
"W. c #6A92B0",
"Q. c #6DB4BD",
"!. c #77BBC2",
"~. c #898083",
"^. c #92888A",
"/. c #988E91",
"(. c #9B9294",
"). c #B39483",
"_. c #9AB3A4",
"`. c #DDB89E",
"'. c #DFA68F",
"]. c #E5A88B",
"[. c #ECB595",
"{. c #F4BB96",
"}. c #E4AD95",
"|. c #DFBCA2",
" X c #E2BDA3",
".X c #9DC5BF",
"XX c #F8C29E",
"oX c #EBC4A9",
"OX c #F7C9A8",
"+X c #FFD2AD",
"@X c #FDD4B6",
"#X c #FDD7B9",
"$X c #FFDBBB",
"%X c #F7D0B2",
"&X c #90C5C3",
"*X c #D5D5D1",
"=X c #FFE2CB",
"-X c #FFE1C1",
";X c #FBE5D7",
":X c #EFECE4",
">X c None",
/* pixels */
">X>X>X>X>X>X>X>X>X>X>X>X>X>X>X>X>X>X>X>X>X>X>X>X>X>X>X>X>X>X>X>X>X>X>X>X>X>X>X>X>X>X>X>X>X>X>X>X>X>X",
">X>X>X>X>X>X>X>X>X>X>X>X>X>X>X>X>X>X>X>X>X>X>X>X>X>X>X>X>X>X>X>X>X>X>X>X>X>X>X>X>X>X>X>X>X>X>X>X>X>X",
">X>X>X>X>X>X>X>X>X>X>X>X>X>X>X>X>X>X>X>X>X>X>X>X>X>X>X>X>X& >X>X>X>X>X>X>X>X>X>X>X>X>X>X>X>X>X>X>X>X",
">X>X>X>X>X>X>X>X>X>X>X>X>X>X>X>X>X>X>X$ - $ >X>X>X>X>X>X>Xx # >X>X>X>X>X>X>X>X>X>X>X>X>X>X>X>X>X>X>X",
">X>X>X>X>X>X>X>X>X>X>X>X>X>X>X>X>X>X>X= M c x $ $ >X>X$ * n x >X>X>X>X>X>X>X>X>X>X>X>X>X>X>X>X>X>X>X",
">X>X>X>X>X>X>X>X>X>X>X>X>X>X>X>X>X>XX # c C M c = & $ x M N Z x >X>X>X>X>X>X>X>X>X>X>X>X>X>X>X>X>X>X",
">X>X>X>X>X>X>X>X>X>X>X>X>X>X>X>XX * k x N Z Z n n z ; B e.N A A z $ z >X>X>X>X>X>X>X>X>X>X>X>X>X>X>X",
">X>X>X>X>X>X>X>X>X>X>X>X>X>X>X* l B r.y.y.e.y.C C B x M e.A e.N c n n >X>X>X>X>X>X>X>X>X>X>X>X>X>X>X",
">X>X>X>X>X>X>X>X>X>X>X>X>X>X>X# = c n n B A y.Z e.y.B e.r.u.e.e.y.e.x >X>X>X>X>X>X>X>X>X>X>X>X>X>X>X",
">X>X>X>X>X>X>X>X>X>X>X>X>X>X>X>X& ; n A y.p.y.r.a.a.e.y.p.r.u.p.p.M # >X>X>X>X>X>X>X>X>X>X>X>X>X>X>X",
">X>X>X>X>X>X>X>X>X>X>X>X>X>X>XX x N A p.a.p.y.r.a.a.B B p.u.C a.y.x X >X>X>X>X>X>X>X>X>X>X>X>X>X>X>X",
">X>X>X>X>X>X>X>X>X>X>X>X>X>X# = x A p.u.y.Z Z Z a.y.v v y.p.C y.u.N $ >X>X>X>X>X>X>X>X>X>X>X>X>X>X>X",
">X>X>X>X>X>X>X>X>X>X>X>X>X>X* x x t.y.A Z Z z M a.y.= $ B u.e.z A e.x >X>X>X>X>X>X>X>X>X>X>X>X>X>X>X",
">X>X>X>X>X>X>X>X>X>X>X>X>X>X$ ; Z A N n Z b W l e.C Y >.b Z y.z z A n >X>X>X>X>X>X>X>X>X>X>X>X>X>X>X",
">X>X>X>X>X>X>X>X>X>X>X>X>X>X>Xx N = x c z B.[.( M = D.-XB.b e.C & x Z z >X>X>X>X>X>X>X>X>X>X>X>X>X>X",
">X>X>X>X>X>X>X>X>X>X>X>X>X>X- k * # z z B.#X$XD.$ ..`.#X#XB.z M X , n c >X>X>X>X>X>X>X>X>X>X>X>X>X>X",
">X>X>X>X>X>X>X>X>X>X>X>X>X$ - m 1 * 1 C.%X#X#X X .B.$X@X@X@Xn.$ ; F 1 v >X>X>X>X>X>X>X>X>X>X>X>X>X>X",
">X>X>X>X>X>X>X>X>X>X>X>X>X# , 6 z $ n.%X;X;X#X#X X X@X=X;X[.I.z.Y C.2 = >X>X>X>X>X>X>X>X>X>X>X>X>X>X",
">X>X>X>X>X>X>X>X>X>X>X>X>X>XO V.2.z.I.L.N.Z.[.@X#X#X{.S.N.G.I.H.].D.O # >X>X>X>X>X>X>X>X>X>X>X>X>X>X",
">X>X>X>X>X>X>X>X>X>X>X>X>X>X>XB.oXL.I.!.s +.&X{.#X{.&X%.t !.L.I.%XD.2 >X>X>X>X>X>X>X>X>X>X>X>X>X>X>X",
">X>X>X>X>X>X>X>X>X>X>X>X>X>X>X>X).J.U.*Xh W.:X@X#X#X:XW.X.*X].G.).s >X>X>X>X>X>X>X>X>X>X>X>X>X>X>X>X",
">X>X>X>X>X>X>X>X>X>X>X>X>X>X>X>X5 e G.oX6.q.;X#X#X#X;X~.4. XJ.e 5 >X>X>X>X>X>X>X>X>X>X>X>X>X>X>X>X>X",
">X>X>X>X>X>X>X>X>X>X>X>X>X>X+ + , 8 N.XX#X@X#X#X#X@X#X#X#XOXN.8 6 @ . >X>X>X>X>X>X>X>X>X>X>X>X>X>X>X",
">X>X>X>X>X>X>X>X>X>X>X>X>Xo @.7.a S ) A.].OX#X#X$X#X#XOX].S./ H R 8.g + >X>X>X>X>X>X>X>X>X>X>X>X>X>X",
">X>X>X>X>X>X>X>X>X>X>X>X>Xu 9./.#.U ` ~ ) S.K.K.K.K.'.A.) ~ U ` g ^.9.+ >X>X>X>X>X>X>X>X>X>X>X>X>X>X",
">X>X>X>X>X>X>X>X>X>X>X>XO @.R.(._ K f.] F m m F N F m F F ` g.` I /.D.j o >X>X>X>X>X>X>X>X>X>X>X>X>X",
">X>X>X>X>X>X>X>X>X>X>X>Xu 8.D.R.L ^ f.k.d.U U U U U U H s.k.f.` Q ^.~.8.o >X>X>X>X>X>X>X>X>X>X>X>X>X",
">X>X>X>X>X>X>X>X>X>X>X>X+ *.4.4.a ^ f.g.g.f.d.f.f.f.f.f.g.g.f.' p *.7.<.@ >X>X>X>X>X>X>X>X>X>X>X>X>X",
">X>X>X>X>X>X>X>X>X>X>X+ #.=.<.@.p ^ f.g.k.k.j.j.j.j.j.j.k.g.f.' 3 h =.5.@.o >X>X>X>X>X>X>X>X>X>X>X>X",
">X>X>X>X>X>X>X>X>X>X>X+ 5.<.&.s , ^ { f.M.k.g.g.g.g.g.k.M.g.{ ` & y 1.*.5.w >X>X>X>X>X>X>X>X>X>X>X>X",
">X>X>X>X>X>X>X>X>X>X>X+ 0.~.u   & D ] } h.M.k.k.k.k.k.M.h.} ] S , . o.T./.f >X>X>X>X>X>X>X>X>X>X>X>X",
">X>X>X>X>X>X>X>X>X>X>Xu (.0.h >X% > G T [ d.m.v.v.v.v.f.[ U G > 3 >Xf V.^.u >X>X>X>X>X>X>X>X>X>X>X>X",
">X>X>X>X>X>X>X>X>X>X>Xw 9.=.f .   o X.-.P T ,.b.b.3.,.` P @.+.+     u *.8.u >X>X>X>X>X>X>X>X>X>X>X>X",
">X>X>X>X>X>X>X>X>X>X>X2 E #._ p o O d X.X.+.6._.E._.q.+.X.d d + o 0 _ #._ 2 >X>X>X>X>X>X>X>X>X>X>X>X",
">X>X>X>X>X>X>X>X>X>X>XE {.=X+XP.R 2 2 y y y -.E.-.T.%.r d 2 2 2 P F.+X=X{.( >X>X>X>X>X>X>X>X>X>X>X>X",
">X>X>X>X>X>X>X>X>X>X>XL ].=X}.oX3.: 7 : : : 9 Q #._ 9 : : > 7 3 >.oX'.=X[.W >X>X>X>X>X>X>X>X>X>X>X>X",
">X>X>X>X>X>X>X>X>X>X>XP A.$XJ.c.W 3 S J K K ` S % J ` K K J S 3 E c.S.-XJ.P >X>X>X>X>X>X>X>X>X>X>X>X",
">X>X>X>X>X>X>X>X>X>X>X>X| [.[.H. .: 6 S H } { U : 7 ` { H S > : E H.}.{.:.>X>X>X>X>X>X>X>X>X>X>X>X>X",
">X>X>X>X>X>X>X>X>X>X>X>X>XE E E 2 g _ 9 7 b 7 7 3 6 7 b 8 9 3.g 2 E Q E >X>X>X>X>X>X>X>X>X>X>X>X>X>X",
">X>X>X>X>X>X>X>X>X>X>X>X>X>X>X>X- O d 9.*.7.@.7.&.#.<.$.5.$.5., - >X>X>X>X>X>X>X>X>X>X>X>X>X>X>X>X>X",
">X>X>X>X>X>X>X>X>X>X>X>X>X>X>X>Xk V * 3 _ %.$.$.$.=.&.o.o.3 % V k >X>X>X>X>X>X>X>X>X>X>X>X>X>X>X>X>X",
">X>X>X>X>X>X>X>X>X>X>X>X>X>X>X>X1 M A C o       .       o C A N ; >X>X>X>X>X>X>X>X>X>X>X>X>X>X>X>X>X",
">X>X>X>X>X>X>X>X>X>X>X>X>X>X>X>Xe e i i 4 5 >X>X>X>X>Xe 4 t i e 5 >X>X>X>X>X>X>X>X>X>X>X>X>X>X>X>X>X",
">X>X>X>X>X>X>X>X>X>X>X>X>X>X>X>X4 p Y Y 9 i >X>X>X>X>Xe 9 Y Y P 5 >X>X>X>X>X>X>X>X>X>X>X>X>X>X>X>X>X",
">X>X>X>X>X>X>X>X>X>X>X>X>X>X>Xq 0 ( | | Y 5 e >X>X>Xe 5 Y  . .( 0 q >X>X>X>X>X>X>X>X>X>X>X>X>X>X>X>X",
">X>X>X>X>X>X>X>X>X>X>X>X>X>X>X4 E ;.l.l.| p q >X>X>X5 p  .l.l.l.W 4 >X>X>X>X>X>X>X>X>X>X>X>X>X>X>X>X",
">X>X>X>X>X>X>X>X>X>X>X>X>X>X>XP ;.l.l.l.l.Y e >X>X>Xq L ;.l.l.l.;.L 4 >X>X>X>X>X>X>X>X>X>X>X>X>X>X>X",
">X>X>X>X>X>X>X>X>X>X>X>X>X>X>XL ;.x.x.x.;.i >X>X>X>X>Xt :.x.x.x.;.L q >X>X>X>X>X>X>X>X>X>X>X>X>X>X>X",
">X>X>X>X>X>X>X>X>X>X>X>X>X>X>Xe a a a a a >X>X>X>X>X>X>Xa a a a a e >X>X>X>X>X>X>X>X>X>X>X>X>X>X>X>X",
">X>X>X>X>X>X>X>X>X>X>X>X>X>X>X>X>X>X>X>X>X>X>X>X>X>X>X>X>X>X>X>X>X>X>X>X>X>X>X>X>X>X>X>X>X>X>X>X>X>X"
};
