/* XPM */
static char *result[] = {
/* columns rows colors chars-per-pixel */
"50 50 199 2 ",
"   c #030003",
".  c #0B040B",
"X  c #0E090D",
"o  c #1E0206",
"O  c #170409",
"+  c #140E15",
"@  c #1B0E14",
"#  c #1A1414",
"$  c #220307",
"%  c #260509",
"&  c #2A0509",
"*  c #2E0F0D",
"=  c #35060B",
"-  c #3A070C",
";  c #350B0D",
":  c #3B090E",
">  c #2D100F",
",  c #37140F",
"<  c #390E11",
"1  c #340F12",
"2  c #221614",
"3  c #2D1312",
"4  c #221815",
"5  c #23151B",
"6  c #26181D",
"7  c #2A1C1D",
"8  c #2A171A",
"9  c #321313",
"0  c #361913",
"q  c #3B1D11",
"w  c #351A1C",
"e  c #3A1D1B",
"r  c #3A1515",
"t  c #34231E",
"y  c #3B211F",
"u  c #231D23",
"i  c #2C1B21",
"p  c #251720",
"a  c #331D21",
"s  c #3A1D23",
"d  c #2B252B",
"f  c #342124",
"g  c #3B2424",
"h  c #372228",
"j  c #32292F",
"k  c #3C2826",
"l  c #2F2730",
"z  c #352C32",
"x  c #3D353B",
"c  c #43090E",
"v  c #4C0A0E",
"b  c #4C0C11",
"n  c #470C10",
"m  c #550E14",
"M  c #580F14",
"N  c #4B1214",
"B  c #4C1A17",
"V  c #471818",
"C  c #5D1216",
"Z  c #591619",
"A  c #621317",
"S  c #661518",
"D  c #6C161A",
"F  c #6E181B",
"G  c #74191C",
"H  c #7B1B1E",
"J  c #751515",
"K  c #44211C",
"L  c #47281A",
"P  c #53291B",
"I  c #54331F",
"U  c #5B371E",
"Y  c #7F1D20",
"T  c #432A2A",
"R  c #472A27",
"E  c #523424",
"W  c #53342E",
"Q  c #593928",
"!  c #462F31",
"~  c #413437",
"^  c #433539",
"/  c #4A3737",
"(  c #5C3B35",
")  c #563833",
"_  c #522B26",
"`  c #633E39",
"'  c #664327",
"]  c #6D4A2A",
"[  c #6C4724",
"{  c #734E2B",
"}  c #7A542D",
"|  c #68433B",
" . c #7E5931",
".. c #333643",
"X. c #443C40",
"o. c #4D4649",
"O. c #4C4346",
"+. c #584A49",
"@. c #5A504F",
"#. c #554D52",
"$. c #5B5254",
"%. c #5D565C",
"&. c #6D4C44",
"*. c #714742",
"=. c #734B44",
"-. c #7F4D42",
";. c #7E504B",
":. c #775043",
">. c #635859",
",. c #7E5A50",
"<. c #5D5666",
"1. c #645D62",
"2. c #6A696D",
"3. c #736A6D",
"4. c #716667",
"5. c #766E73",
"6. c #797175",
"7. c #7D7B79",
"8. c #6D6E77",
"9. c #831F21",
"0. c #872022",
"q. c #8C2123",
"w. c #942425",
"e. c #9A2627",
"r. c #9F2828",
"t. c #9C2728",
"y. c #883C32",
"u. c #A12929",
"i. c #A82B2B",
"p. c #80592E",
"a. c #864F3F",
"s. c #815B32",
"d. c #914339",
"f. c #8D6433",
"g. c #976D36",
"h. c #9A6E36",
"j. c #91693A",
"k. c #9B7037",
"l. c #9D723B",
"z. c #875747",
"x. c #9D5047",
"c. c #915E58",
"v. c #8C534D",
"b. c #AA5846",
"n. c #BA5F4B",
"m. c #987242",
"M. c #826054",
"N. c #98655A",
"B. c #A37B44",
"V. c #B06D54",
"C. c #B17759",
"Z. c #997767",
"A. c #83797C",
"S. c #847775",
"D. c #9B7E71",
"F. c #AE7E6F",
"G. c #B37263",
"H. c #C9775D",
"J. c #D27F5E",
"K. c #C27565",
"L. c #AB8651",
"P. c #88846D",
"I. c #8F857E",
"U. c #939378",
"Y. c #B18D7A",
"T. c #AD8B79",
"R. c #D2896C",
"E. c #CC9678",
"W. c #D39171",
"Q. c #E6A278",
"!. c #857D82",
"~. c #648097",
"^. c #6BCADC",
"/. c #8A8184",
"(. c #928A8D",
"). c #9B9396",
"_. c #BA9581",
"`. c #A39B9F",
"'. c #93AC9F",
"]. c #DEB89D",
"[. c #CFAB94",
"{. c #E9AD88",
"}. c #F1B38B",
"|. c #EDB897",
" X c #F4BA95",
".X c #F2BFA2",
"XX c #E6C3A8",
"oX c #F2CAAD",
"OX c #FACCAB",
"+X c #FDD4B5",
"@X c #FDD6B9",
"#X c #FFDABC",
"$X c #F5D0BD",
"%X c #8AD0D7",
"&X c #F5DBCF",
"*X c #EEE0D4",
"=X c #FBE7D9",
"-X c #E3E8EA",
";X c None",
/* pixels */
";X;X;X;X;X;X;X;X;X;X;X;X;X;X;X;X;X;X;X;X;X;X;X;X;X;X;X;X;X;X;X;X;X;X;X;X;X;X;X;X;X;X;X;X;X;X;X;X;X;X",
";X;X;X;X;X;X;X;X;X;X;X;X;X;X;X;X;X;X;X;X;X;X;X;X;X;X;X;X;X;X;X;X;X;X;X;X;X;X;X;X;X;X;X;X;X;X;X;X;X;X",
";X;X;X;X;X;X;X;X;X;X;X;X;X;X;X;X;X;X;X;X;X;X;X;X;X;X;X;X;X;X;X;X;X;X;X;X;X;X;X;X;X;X;X;X;X;X;X;X;X;X",
";X;X;X;X;X;X;X;X;X;X;X;X;X;X;X;X;X;X;X;X;X;X;X;X;X;X;X;X;X;X;X;X;X;X;X;X;X;X;X;X;X;X;X;X;X;X;X;X;X;X",
";X;X;X;X;X;X;X;X;X;X;X;X;X;X;X;X;X;X;X;X;X;X;X;X;X;X;X;X;X;X;X;X;X;X;X;X;X;X;X;X;X;X;X;X;X;X;X;X;X;X",
";X;X;X;X;X;X;X;X;X;X;X;X;X;X;X;X;X;X;X;X;X;X;X;X;X;X;X;X;X;X;X;X;X;X;X;X;X;X;X;X;X;X;X;X;X;X;X;X;X;X",
";X;X;X;X;X;X;X;X;X;X;X;X;X;X;X;X;X;X$ m % o o ;X;X;X;X;X;X;X;X;X;X;X;X;X;X;X;X;X;X;X;X;X;X;X;X;X;X;X",
";X;X;X;X;X;X;X;X;X;X;X;X;X;X;X;X;Xo - q.S : b = o o $ o ;X;X;X;X;X;X;X;X;X;X;X;X;X;X;X;X;X;X;X;X;X;X",
";X;X;X;X;X;X;X;X;X;X;X;X;X;X;X;X$ $ m 9.e.G D G F S m c % o ;X;X;X;X;X;X;X;X;X;X;X;X;X;X;X;X;X;X;X;X",
";X;X;X;X;X;X;X;X;X;X;X;X;X;X;Xo = M H e.9.t.t.w.H S m = - c : $ ;X;X;X;X;X;X;X;X;X;X;X;X;X;X;X;X;X;X",
";X;X;X;X;X;X;X;X;X;X;X;X;X;X;X% m Y t.u.u.r.9.r.w.A S D b m & ;X;X;X;X;X;X;X;X;X;X;X;X;X;X;X;X;X;X;X",
";X;X;X;X;X;X;X;X;X;X;X;X;X;X% C e.r.w.u.t.w.S w.r.0.m Y H = c & ;X;X;X;X;X;X;X;X;X;X;X;X;X;X;X;X;X;X",
";X;X;X;X;X;X;X;X;X;X;X;X;X= C q.e.H D w.C 9.u.e.w.u.9.S Y G A = & ;X;X;X;X;X;X;X;X;X;X;X;X;X;X;X;X;X",
";X;X;X;X;X;X;X;X;X;X;Xo % c H i.F m H e.- m 9.e.9.G 9.Y m H D - - ;X;X;X;X;X;X;X;X;X;X;X;X;X;X;X;X;X",
";X;X;X;X;X;X;X;X;X;X;X;Xo $ S w.c v m w.C G A F 9.A D D F M S b o ;X;X;X;X;X;X;X;X;X;X;X;X;X;X;X;X;X",
";X;X;X;X;X;X;X;X;X;X;X;X;X= F v *._ M.Z M Y w.S H w.9.A H S A & ;X;X;X;X;X;X;X;X;X;X;X;X;X;X;X;X;X;X",
";X;X;X;X;X;X;X;X;X;X;X;X;X= n =.XX( [.Y.; Z w.H m 9.9.v G q.G $ ;X;X;X;X;X;X;X;X;X;X;X;X;X;X;X;X;X;X",
";X;X;X;X;X;X;X;X;X;X;X;X;X$ o Z.&X[.oX+XY.: H q.D q.D & 9.r.H $ ;X;X;X;X;X;X;X;X;X;X;X;X;X;X;X;X;X;X",
";X;X;X;X;X;X;X;X;X;X;X;X;X;X&.oX@X@X@X@XXX* C S - G N $ A w.A $ ;X;X;X;X;X;X;X;X;X;X;X;X;X;X;X;X;X;X",
";X;X;X;X;X;X;X;X;X;X;X;X;X;XM.#X+X@X+X&X=XY.n v % - T.W - H b ;X;X;X;X;X;X;X;X;X;X;X;X;X;X;X;X;X;X;X",
";X;X;X;X;X;X;X;X;X;X;X;X;X;X:. X@X@XQ.x.N.E.C.1 a.z._.=.$ m $ ;X;X;X;X;X;X;X;X;X;X;X;X;X;X;X;X;X;X;X",
";X;X;X;X;X;X;X;X;X;X;X;X;X;X;XD.#X@X$.j ^.%X XY.N.+XoXR.V ; $ ;X;X;X;X;X;X;X;X;X;X;X;X;X;X;X;X;X;X;X",
";X;X;X;X;X;X;X;X;X;X;X;X;X;X;XD.#X+X~...-X=X$X XQ.{.R.d.g $ ;X;X;X;X;X;X;X;X;X;X;X;X;X;X;X;X;X;X;X;X",
";X;X;X;X;X;X;X;X;X;X;X;X;X;X;XZ.+X@XI.7.*X@XOX|.}.H.y.s ;X;X;X;X;X;X;X;X;X;X;X;X;X;X;X;X;X;X;X;X;X;X",
";X;X;X;X;X;X;X;X;X;X;X;X;X;X;X| E.+X#X#X+X+X+X+X}.J._ 3 1 ;X;X;X;X;X;X;X;X;X;X;X;X;X;X;X;X;X;X;X;X;X",
";X;X;X;X;X;X;X;X;X;X;X;X;X;X;X;X( G.}.+X#X@X+X{.J.y.R / ! . ;X;X;X;X;X;X;X;X;X;X;X;X;X;X;X;X;X;X;X;X",
";X;X;X;X;X;X;X;X;X;X;X;X;X;X;X;X0 P b.K.K.K.K.n.y.E @./.2.o.X ;X;X;X;X;X;X;X;X;X;X;X;X;X;X;X;X;X;X;X",
";X;X;X;X;X;X;X;X;X;X;X;X;X;X;Xq [ { P B B B B B , +.!.`.!.4.z ;X;X;X;X;X;X;X;X;X;X;X;X;X;X;X;X;X;X;X",
";X;X;X;X;X;X;X;X;X;X;X;X;X;X;XI f.h.{ ' ' ' ' { U ^ (.A.`.5.$.. ;X;X;X;X;X;X;X;X;X;X;X;X;X;X;X;X;X;X",
";X;X;X;X;X;X;X;X;X;X;X;X;X;X;XI f.k.h.} } }  .k.[ 3 >./.!.!.X.. ;X;X;X;X;X;X;X;X;X;X;X;X;X;X;X;X;X;X",
";X;X;X;X;X;X;X;X;X;X;X;X;X;X;XI f.h.h.h.h.g.g.k.[ ; i A.3.).1.. ;X;X;X;X;X;X;X;X;X;X;X;X;X;X;X;X;X;X",
";X;X;X;X;X;X;X;X;X;X;X;X;X;X;XI j.k.h.h.k.k.j.p.} K O %.(.5.3.. ;X;X;X;X;X;X;X;X;X;X;X;X;X;X;X;X;X;X",
";X;X;X;X;X;X;X;X;X;X;X;X;X;X;XP m.m.l.m.B.B.m.{  .U @ %.).6.@.. ;X;X;X;X;X;X;X;X;X;X;X;X;X;X;X;X;X;X",
";X;X;X;X;X;X;X;X;X;X;X;X;X;X;Xy  .L.L.L.L.B.f.{ I 9 x I.6.7.d . ;X;X;X;X;X;X;X;X;X;X;X;X;X;X;X;X;X;X",
";X;X;X;X;X;X;X;X;X;X;X;X;X;X;Xq )  .j.j.j. .E k V V +.(.6.O.@ ;X;X;X;X;X;X;X;X;X;X;X;X;X;X;X;X;X;X;X",
";X;X;X;X;X;X;X;X;X;X;X;X;X;X;X* z +.P.U.P.Q  .z.V.-.A.3.5.# ;X;X;X;X;X;X;X;X;X;X;X;X;X;X;X;X;X;X;X;X",
";X;X;X;X;X;X;X;X;X;X;X;X;X;X;X* 6 ..'.2.#.z.|.$X+X].S.o.z X ;X;X;X;X;X;X;X;X;X;X;X;X;X;X;X;X;X;X;X;X",
";X;X;X;X;X;X;X;X;X;X;X;X;X;X;X9 4 6 8.<.s R.#X=X=X X( # l . ;X;X;X;X;X;X;X;X;X;X;X;X;X;X;X;X;X;X;X;X",
";X;X;X;X;X;X;X;X;X;X;X;X;X;X;X9 y U E s T Q.+X@X|.z.j 4 O.+ ;X;X;X;X;X;X;X;X;X;X;X;X;X;X;X;X;X;X;X;X",
";X;X;X;X;X;X;X;X;X;X;X;X;X;X;X9 , e Q r a b.{.|.v.Q ] K >.+ ;X;X;X;X;X;X;X;X;X;X;X;X;X;X;X;X;X;X;X;X",
";X;X;X;X;X;X;X;X;X;X;X;X;X;X;X5 X.#.T r w a f h R ] L w j . ;X;X;X;X;X;X;X;X;X;X;X;X;X;X;X;X;X;X;X;X",
";X;X;X;X;X;X;X;X;X;X;X;X;X;X;X& 1 z 3...>.w g w e R T 4.z O ;X;X;X;X;X;X;X;X;X;X;X;X;X;X;X;X;X;X;X;X",
";X;X;X;X;X;X;X;X;X;X;X;X;X;Xr N J _ x x o.o.o.#.>.1.1.O.9 < ;X;X;X;X;X;X;X;X;X;X;X;X;X;X;X;X;X;X;X;X",
";X;X;X;X;X;X;X;X;X;X;X;X;Xr e 7 B Z $ . i ^ d x z 7 $ @ A 8 i ;X;X;X;X;X;X;X;X;X;X;X;X;X;X;X;X;X;X;X",
";X;X;X;X;X;X;X;X;X;X;XT ! g 8 4 7 i , ;X          O N w p f t t ;X;X;X;X;X;X;X;X;X;X;X;X;X;X;X;X;X;X",
";X;X;X;X;X;X;X;X;X;Xi E =.) # 4 t i ;X;X;X;X;X;X;X;X8 4 # ` k 7 i ;X;X;X;X;X;X;X;X;X;X;X;X;X;X;X;X;X",
";X;X;X;X;X;X;X;X;X;X;Xf E ( t 4 8 7 ;X;X;X;X;X;X;X6 i T ) ;.) 4 i ;X;X;X;X;X;X;X;X;X;X;X;X;X;X;X;X;X",
";X;X;X;X;X;X;X;X;X;X;X;Xf y t 4 4 7 ;X;X;X;X;X;X5 ! *.=.v.z.t 6 ;X;X;X;X;X;X;X;X;X;X;X;X;X;X;X;X;X;X",
";X;X;X;X;X;X;X;X;X;X;X;X;X;Xi p 6 ;X;X;X;X;X;X;Xh *.c.c.| f 7 ;X;X;X;X;X;X;X;X;X;X;X;X;X;X;X;X;X;X;X",
";X;X;X;X;X;X;X;X;X;X;X;X;X;X;X;X;X;X;X;X;X;X;X;Xi a h h i 6 ;X;X;X;X;X;X;X;X;X;X;X;X;X;X;X;X;X;X;X;X"
};
