/* XPM */
static char *result[] = {
/* columns rows colors chars-per-pixel */
"50 50 196 2 ",
"   c #070007",
".  c #0B040A",
"X  c #0F080F",
"o  c #1D0105",
"O  c #1B060B",
"+  c #16070D",
"@  c #150D14",
"#  c #1C1415",
"$  c #230207",
"%  c #2B0409",
"&  c #28080A",
"*  c #34060B",
"=  c #3C070C",
"-  c #330B0D",
";  c #3D090E",
":  c #32120F",
">  c #200E10",
",  c #3C0D10",
"<  c #221615",
"1  c #221814",
"2  c #24141A",
"3  c #26181D",
"4  c #2C1D1C",
"5  c #2F1615",
"6  c #331513",
"7  c #371A14",
"8  c #3B1C11",
"9  c #391819",
"0  c #34231E",
"q  c #241921",
"w  c #2B1B21",
"e  c #201B28",
"r  c #321E21",
"t  c #3A1E23",
"y  c #282128",
"u  c #352122",
"i  c #3A2523",
"p  c #3C272D",
"a  c #31292D",
"s  c #3C292C",
"d  c #342C32",
"f  c #3B2F34",
"g  c #3A3239",
"h  c #460C10",
"j  c #4C0C11",
"k  c #530E13",
"l  c #590E13",
"z  c #461617",
"x  c #531013",
"c  c #5C1116",
"v  c #5D1E1C",
"b  c #42070D",
"n  c #621317",
"m  c #661418",
"M  c #6B161A",
"N  c #6C1A1B",
"B  c #75191C",
"V  c #7B1C1E",
"C  c #70171B",
"Z  c #41211B",
"A  c #482718",
"S  c #5E221E",
"D  c #512F1D",
"F  c #54321E",
"G  c #5D391E",
"H  c #612A1F",
"J  c #633F1E",
"K  c #432A2B",
"L  c #452424",
"P  c #4D312C",
"I  c #4F3423",
"U  c #593921",
"Y  c #54352C",
"T  c #573B27",
"R  c #462C30",
"E  c #4C3435",
"W  c #463A3D",
"Q  c #5A3C35",
"!  c #573731",
"~  c #572E2A",
"^  c #61362F",
"/  c #623D35",
"(  c #613B37",
")  c #743D35",
"_  c #5C412B",
"`  c #644224",
"'  c #6A4729",
"]  c #744F2D",
"[  c #78522D",
"{  c #6B433A",
"}  c #78443A",
"|  c #7E5830",
" . c #363844",
".. c #453D41",
"X. c #483D40",
"o. c #4D4547",
"O. c #51464A",
"+. c #574A49",
"@. c #554E58",
"#. c #595259",
"$. c #5B5253",
"%. c #6A4740",
"&. c #784C46",
"*. c #7B5445",
"=. c #625656",
"-. c #6B5C5D",
";. c #66504D",
":. c #635B62",
">. c #5B6368",
",. c #6C6767",
"<. c #736A6D",
"1. c #706367",
"2. c #746C71",
"3. c #7D7579",
"4. c #797374",
"5. c #821E20",
"6. c #872022",
"7. c #8C2123",
"8. c #942425",
"9. c #9A2727",
"0. c #9C2728",
"q. c #9E2828",
"w. c #A12929",
"e. c #974539",
"r. c #845E33",
"t. c #8C6433",
"y. c #876236",
"u. c #936935",
"i. c #9A6F37",
"p. c #956B37",
"a. c #9C7037",
"s. c #9C723A",
"d. c #82534E",
"f. c #935A4F",
"g. c #A34F41",
"h. c #9A7342",
"j. c #977243",
"k. c #886457",
"l. c #9B6756",
"z. c #837458",
"x. c #9B634B",
"c. c #A37B44",
"v. c #B86855",
"b. c #976D61",
"n. c #8A7E60",
"m. c #987868",
"M. c #827A7C",
"N. c #897F7E",
"B. c #997C70",
"V. c #B36B62",
"C. c #C97459",
"Z. c #C57860",
"A. c #A9844E",
"S. c #AB8550",
"D. c #A58273",
"F. c #B38F7D",
"G. c #D78762",
"H. c #D48D78",
"J. c #D8967C",
"K. c #CB8C72",
"L. c #E29C71",
"P. c #E3A37C",
"I. c #767C82",
"U. c #877E82",
"Y. c #71868F",
"T. c #60B8CA",
"R. c #8D8487",
"E. c #918B90",
"W. c #9B9395",
"Q. c #A1999C",
"!. c #95AEA1",
"~. c #DBB79E",
"^. c #CAA790",
"/. c #EAAF8D",
"(. c #EAAC85",
"). c #EFB28B",
"_. c #F0B58F",
"`. c #F2B994",
"'. c #EFBB97",
"]. c #E8BFA5",
"[. c #F5C19F",
"{. c #FAC6A3",
"}. c #F4C9AC",
"|. c #F8C7A7",
" X c #FDD5B6",
".X c #FED6B8",
"XX c #FFDABC",
"oX c #E8C1A6",
"OX c #84C5C8",
"+X c #F6DED0",
"@X c #FFE0C0",
"#X c #FDE6D8",
"$X c #EAE3DC",
"%X c #D9E7EA",
"&X c #EBECE5",
"*X c None",
/* pixels */
"*X*X*X*X*X*X*X*X*X*X*X*X*X*X*X*X*X*X*X*X*X*X*X*X*X*X*X*X*X*X*X*X*X*X*X*X*X*X*X*X*X*X*X*X*X*X*X*X*X*X",
"*X*X*X*X*X*X*X*X*X*X*X*X*X*X*X*X*X*X*X*X*X*X*X*X*X*X*X*X*X*X*X*X*X*X*X*X*X*X*X*X*X*X*X*X*X*X*X*X*X*X",
"*X*X*X*X*X*X*X*X*X*X*X*X*X*X*X*X*X*X*X*X*X*X*X*X*X*X*X*X*X*X*X*X*X*X*X*X*X*X*X*X*X*X*X*X*X*X*X*X*X*X",
"*X*X*X*X*X*X*X*X*X*X*X*X*X*X*X*X*X*X*X*X*X*X*X*X*X*X*X*X*X*X*X*X*X*X*X*X*X*X*X*X*X*X*X*X*X*X*X*X*X*X",
"*X*X*X*X*X*X*X*X*X*X*X*X*X*X*X*X*X*X*X*X*X*X*X*X*X*X*X*X*X*Xh *X*X*X*X*X*X*X*X*X*X*X*X*X*X*X*X*X*X*X",
"*X*X*X*X*X*X*X*X*X*X*X*X*X*X*X*X*X*X*X*X*X*Xo o o o % b * x 6.* *X*X*X*X*X*X*X*X*X*X*X*X*X*X*X*X*X*X",
"*X*X*X*X*X*X*X*X*X*X*X*X*X*X*X*X*X*X*X*Xo $ ; j x c m m M 8.7.j o *X*X*X*X*X*X*X*X*X*X*X*X*X*X*X*X*X",
"*X*X*X*X*X*X*X*X*X*X*X*X*X*X*X*X*X*X$ ; = * * l m V 8.8.9.8.8.B j * *X*X*X*X*X*X*X*X*X*X*X*X*X*X*X*X",
"*X*X*X*X*X*X*X*X*X*X*X*X*X*X*X*X*X*X*X& l j n m n 7.w.7.q.0.w.8.V h $ *X*X*X*X*X*X*X*X*X*X*X*X*X*X*X",
"*X*X*X*X*X*X*X*X*X*X*X*X*X*X*X*X*X*X$ ; - M 5.k 5.w.8.n 8.q.w.q.0.8.k o *X*X*X*X*X*X*X*X*X*X*X*X*X*X",
"*X*X*X*X*X*X*X*X*X*X*X*X*X*X*X*X*X$ = c M 5.m V w.8.8.q.8.N 8.C 5.w.5.k * *X*X*X*X*X*X*X*X*X*X*X*X*X",
"*X*X*X*X*X*X*X*X*X*X*X*X*X*X*X*X*X; * M 5.l B 8.5.7.0.7.c * 8.V k V w.V h $ o *X*X*X*X*X*X*X*X*X*X*X",
"*X*X*X*X*X*X*X*X*X*X*X*X*X*X*X*X*X$ k M k M C n j 5.V c m c 8.n j k 9.M $ o *X*X*X*X*X*X*X*X*X*X*X*X",
"*X*X*X*X*X*X*X*X*X*X*X*X*X*X*X*X*X*X* l M B n 7.7.6.m 7.5.c N ( L ! l M % *X*X*X*X*X*X*X*X*X*X*X*X*X",
"*X*X*X*X*X*X*X*X*X*X*X*X*X*X*X*X*X*X$ B 5.B k 7.7.k V 8.c & b.^._ ~.! l ; *X*X*X*X*X*X*X*X*X*X*X*X*X",
"*X*X*X*X*X*X*X*X*X*X*X*X*X*X*X*X*X*X$ V w.V & C 7.n 7.6., b. XoXF.XXm.o % *X*X*X*X*X*X*X*X*X*X*X*X*X",
"*X*X*X*X*X*X*X*X*X*X*X*X*X*X*X*X*X*X$ M 9.m $ k V h N n & ]. X XXX.X~.Q *X*X*X*X*X*X*X*X*X*X*X*X*X*X",
"*X*X*X*X*X*X*X*X*X*X*X*X*X*X*X*X*X*X*Xj 5.b P l.= o k ; D.+X#X X.X X@Xk.*X*X*X*X*X*X*X*X*X*X*X*X*X*X",
"*X*X*X*X*X*X*X*X*X*X*X*X*X*X*X*X*X*X*X& c $ { W.{ e.$ x.J.V.v./..X.X|.*.*X*X*X*X*X*X*X*X*X*X*X*X*X*X",
"*X*X*X*X*X*X*X*X*X*X*X*X*X*X*X*X*X*X*X$ = 8 G.oX|.k.m./.OXT.a ;..XXXD.r *X*X*X*X*X*X*X*X*X*X*X*X*X*X",
"*X*X*X*X*X*X*X*X*X*X*X*X*X*X*X*X*X*X*X*X$ t g.(.`.L.'. X&X%Xg Y. XXXB.*X*X*X*X*X*X*X*X*X*X*X*X*X*X*X",
"*X*X*X*X*X*X*X*X*X*X*X*X*X*X*X*X*X*X*X*X*X*XK w.C.(.(.|..X$X>.4. X Xm.*X*X*X*X*X*X*X*X*X*X*X*X*X*X*X",
"*X*X*X*X*X*X*X*X*X*X*X*X*X*X*X*X*X*X*X*X*X*X2 ^ G._. X.X X X@X.X.X/.*.*X*X*X*X*X*X*X*X*X*X*X*X*X*X*X",
"*X*X*X*X*X*X*X*X*X*X*X*X*X*X*X*X*X*X*X*X*Xp K L e.G._..XXXXX.X].K.} *X*X*X*X*X*X*X*X*X*X*X*X*X*X*X*X",
"*X*X*X*X*X*X*X*X*X*X*X*X*X*X*X*X*X*X*X*Xg :.M.O.~ e.C.H.H.J.H.v.H 6 *X*X*X*X*X*X*X*X*X*X*X*X*X*X*X*X",
"*X*X*X*X*X*X*X*X*X*X*X*X*X*X*X*X*X*X*Xw <.U.Q.3.+.z H v v v N S ` J 7 *X*X*X*X*X*X*X*X*X*X*X*X*X*X*X",
"*X*X*X*X*X*X*X*X*X*X*X*X*X*X*X*X*X*X. $.<.Q.U.E.W F J F U T T ` p.t.D *X*X*X*X*X*X*X*X*X*X*X*X*X*X*X",
"*X*X*X*X*X*X*X*X*X*X*X*X*X*X*X*X*X*X  X.M.E.U.1.7 ' i.r.[ [ [ t.a.t.F *X*X*X*X*X*X*X*X*X*X*X*X*X*X*X",
"*X*X*X*X*X*X*X*X*X*X*X*X*X*X*X*X*X*X. #.W.<.N.a - ` a.u.u.u.u.i.a.t.F *X*X*X*X*X*X*X*X*X*X*X*X*X*X*X",
"*X*X*X*X*X*X*X*X*X*X*X*X*X*X*X*X*X*XX <.3.R.:.+ 8 [ y.u.a.a.i.i.i.t.F *X*X*X*X*X*X*X*X*X*X*X*X*X*X*X",
"*X*X*X*X*X*X*X*X*X*X*X*X*X*X*X*X*X*X. =.4.W.$.+ G r.] h.h.a.a.s.c.j.F *X*X*X*X*X*X*X*X*X*X*X*X*X*X*X",
"*X*X*X*X*X*X*X*X*X*X*X*X*X*X*X*X*X*X. d M.M.3.f 8 G ] t.A.S.S.S.A.y.8 *X*X*X*X*X*X*X*X*X*X*X*X*X*X*X",
"*X*X*X*X*X*X*X*X*X*X*X*X*X*X*X*X*X*X*X@ $.2.E.O.9 z F _ y.h.h.h.y.` 8 *X*X*X*X*X*X*X*X*X*X*X*X*X*X*X",
"*X*X*X*X*X*X*X*X*X*X*X*X*X*X*X*X*X*X*X3 @ M.4.4.) f.' Q T z.n.z.+.f 6 *X*X*X*X*X*X*X*X*X*X*X*X*X*X*X",
"*X*X*X*X*X*X*X*X*X*X*X*X*X*X*X*X*X*X*X*XX ..@.R.^.{.]./.&.,.Y.!. .w : *X*X*X*X*X*X*X*X*X*X*X*X*X*X*X",
"*X*X*X*X*X*X*X*X*X*X*X*X*X*X*X*X*X*X*X*X. w # %.{.#X#X@XC.i #.I.e 2 : *X*X*X*X*X*X*X*X*X*X*X*X*X*X*X",
"*X*X*X*X*X*X*X*X*X*X*X*X*X*X*X*X*X*X*X*X@ X.# u l.}.XX.XP.K R Y I 7 : *X*X*X*X*X*X*X*X*X*X*X*X*X*X*X",
"*X*X*X*X*X*X*X*X*X*X*X*X*X*X*X*X*X*X*X*X@ =.Z ' T l.{.'.v.u 7 G Z 7 6 *X*X*X*X*X*X*X*X*X*X*X*X*X*X*X",
"*X*X*X*X*X*X*X*X*X*X*X*X*X*X*X*X*X*X*X*XX d 7 F ] P E E L 5 6 K O.W 3 *X*X*X*X*X*X*X*X*X*X*X*X*X*X*X",
"*X*X*X*X*X*X*X*X*X*X*X*X*X*X*X*X*X*X*X*X. d -.9 z 9 5 6 6 =.f ,.f q O *X*X*X*X*X*X*X*X*X*X*X*X*X*X*X",
"*X*X*X*X*X*X*X*X*X*X*X*X*X*X*X*X*X*X*X*X* 2 $.2.,.$.O.O.o.O...o.K v 6 3 *X*X*X*X*X*X*X*X*X*X*X*X*X*X",
"*X*X*X*X*X*X*X*X*X*X*X*X*X*X*X*X*X*X*Xw 9 m + O a W O.d o.a . O h z w 0 *X*X*X*X*X*X*X*X*X*X*X*X*X*X",
"*X*X*X*X*X*X*X*X*X*X*X*X*X*X*X*X*X*Xr 0 4 3 9 z             *X, w 3 < 4 u K u *X*X*X*X*X*X*X*X*X*X*X",
"*X*X*X*X*X*X*X*X*X*X*X*X*X*X*X*X*Xw 0 0 Q 1 2 w *X*X*X*X*X*X*X*Xr 0 < < P d.! w *X*X*X*X*X*X*X*X*X*X",
"*X*X*X*X*X*X*X*X*X*X*X*X*X*X*X*X*Xw < ! &.P u w *X*X*X*X*X*X*X*X4 4 < 4 Q ! u w *X*X*X*X*X*X*X*X*X*X",
"*X*X*X*X*X*X*X*X*X*X*X*X*X*X*X*X*X*X3 i d.d.%.( s 2 *X*X*X*X*X*X3 < 1 0 K u 4 *X*X*X*X*X*X*X*X*X*X*X",
"*X*X*X*X*X*X*X*X*X*X*X*X*X*X*X*X*X*X*X3 R } f.b.%.u *X*X*X*X*X*X3 3 2 4 w *X*X*X*X*X*X*X*X*X*X*X*X*X",
"*X*X*X*X*X*X*X*X*X*X*X*X*X*X*X*X*X*X*X*Xq u R R K r *X*X*X*X*X*X*X*X*X*X*X*X*X*X*X*X*X*X*X*X*X*X*X*X",
"*X*X*X*X*X*X*X*X*X*X*X*X*X*X*X*X*X*X*X*X*X*X*X*X*X*X*X*X*X*X*X*X*X*X*X*X*X*X*X*X*X*X*X*X*X*X*X*X*X*X",
"*X*X*X*X*X*X*X*X*X*X*X*X*X*X*X*X*X*X*X*X*X*X*X*X*X*X*X*X*X*X*X*X*X*X*X*X*X*X*X*X*X*X*X*X*X*X*X*X*X*X"
};
