/* XPM */
static char *result[] = {
/* columns rows colors chars-per-pixel */
"50 50 201 2 ",
"   c #060107",
".  c #0C040B",
"X  c #080007",
"o  c #1E0206",
"O  c #13060C",
"+  c #17090A",
"@  c #140C12",
"#  c #1B0C12",
"$  c #180F19",
"%  c #1D141B",
"&  c #1C1215",
"*  c #230206",
"=  c #270408",
"-  c #2D0409",
";  c #2C0E0D",
":  c #230B0C",
">  c #34060B",
",  c #3A070C",
"<  c #3C090D",
"1  c #33090D",
"2  c #2C100F",
"3  c #31130E",
"4  c #37190E",
"5  c #3C1C0D",
"6  c #200A10",
"7  c #3F0E11",
"8  c #231215",
"9  c #2B1611",
"0  c #24151B",
"q  c #25191D",
"w  c #2C1B1E",
"e  c #281817",
"r  c #371714",
"t  c #3C1414",
"y  c #361913",
"u  c #3B1B11",
"i  c #351A19",
"p  c #33221E",
"a  c #271720",
"s  c #251B22",
"d  c #2B1A21",
"f  c #321C23",
"g  c #381920",
"h  c #2B242A",
"j  c #23202B",
"k  c #362224",
"l  c #3B2422",
"z  c #392928",
"x  c #272430",
"c  c #282533",
"v  c #2B2835",
"b  c #3F2E32",
"n  c #393338",
"m  c #430A0F",
"M  c #42070E",
"N  c #401F0E",
"B  c #450B10",
"V  c #4A0C11",
"C  c #530E13",
"Z  c #491516",
"A  c #551114",
"S  c #5B1115",
"D  c #531A1A",
"F  c #611217",
"G  c #651418",
"H  c #6C161A",
"J  c #70171B",
"K  c #73191C",
"L  c #7C1C1F",
"P  c #46260E",
"I  c #452513",
"U  c #4C2B13",
"Y  c #442318",
"T  c #452B1A",
"R  c #482817",
"E  c #512819",
"W  c #5C3215",
"Q  c #5E3A1E",
"!  c #553318",
"~  c #60211F",
"^  c #422A26",
"/  c #412728",
"(  c #442B2B",
")  c #4B2A29",
"_  c #4D3421",
"`  c #4C322E",
"'  c #47332F",
"]  c #5B332B",
"[  c #433232",
"{  c #493434",
"}  c #453B3E",
"|  c #41353F",
" . c #5D3B35",
".. c #513836",
"X. c #5A2E2D",
"o. c #632A25",
"O. c #782E29",
"+. c #623926",
"@. c #77362D",
"#. c #643C36",
"$. c #7A3B37",
"%. c #5A423F",
"&. c #654223",
"*. c #6E4A29",
"=. c #734D2B",
"-. c #76512D",
";. c #7C562E",
":. c #6A423C",
">. c #443B43",
",. c #4C3E41",
"<. c #4D4345",
"1. c #4C4348",
"2. c #48474E",
"3. c #584C4D",
"4. c #444851",
"5. c #464552",
"6. c #564D52",
"7. c #594D52",
"8. c #5B5356",
"9. c #5E565A",
"0. c #6A4A43",
"q. c #784C47",
"w. c #794D48",
"e. c #765249",
"r. c #60575A",
"t. c #625A5D",
"y. c #6B5E5C",
"u. c #655E61",
"i. c #685F60",
"p. c #6A6164",
"a. c #6C6569",
"s. c #746A6C",
"d. c #7D7579",
"f. c #766E74",
"g. c #841E21",
"h. c #852021",
"j. c #8D2223",
"k. c #932425",
"l. c #9B2727",
"z. c #9C2728",
"x. c #9D2828",
"c. c #A22929",
"v. c #835B2E",
"b. c #8A4038",
"n. c #835B31",
"m. c #94473B",
"M. c #8B6233",
"N. c #916735",
"B. c #936A35",
"V. c #996E37",
"C. c #996F38",
"Z. c #9B713B",
"A. c #88564D",
"S. c #875651",
"D. c #945F5A",
"F. c #814A42",
"G. c #9F7640",
"H. c #956857",
"J. c #9A6C55",
"K. c #A37B43",
"L. c #A07740",
"P. c #A56D51",
"I. c #AC6D52",
"U. c #AA7154",
"Y. c #BA7A5A",
"T. c #A3694E",
"R. c #80716F",
"E. c #80787B",
"W. c #807678",
"Q. c #997564",
"!. c #A77B64",
"~. c #C77557",
"^. c #A8834E",
"/. c #AC8470",
"(. c #BE8768",
"). c #C7805F",
"_. c #CB8769",
"`. c #D58D68",
"'. c #DD936C",
"]. c #D89478",
"[. c #D68D74",
"{. c #EEA679",
"}. c #E9A276",
"|. c #F3AA7C",
" X c #837B80",
".X c #8B8284",
"XX c #948B8D",
"oX c #999092",
"OX c #BA9885",
"+X c #DF9B81",
"@X c #C7A48E",
"#X c #EDB28F",
"$X c #ECAE90",
"%X c #F5C09E",
"&X c #FDCAA6",
"*X c #FFD1AD",
"=X c #FFDABB",
"-X c #FDD6B9",
";X c #FFE3CE",
":X c #FFE4D0",
">X c None",
/* pixels */
">X>X>X>X>X>X>X>X>X>X>X>X>X>X>X>X>X>X>X>X>X>X>X>X>X>X>X>X>X>X>X>X>X>X>X>X>X>X>X>X>X>X>X>X>X>X>X>X>X>X",
">X>X>X>X>X>X>X>X>X>X>X>X>X>X>X>X>X>X>X>X>X>X>X>X>X>X>X>X>X>X>X>X>X>X>X>X>X>X>X>X>X>X>X>X>X>X>X>X>X>X",
">X>X>X>X>X>X>X>X>X>X>X>X>X>X>X>X>X>X>X>X>X>X>X>X>X>X>X>X>X>X>X>X>X>X>X>X>X>X>X>X>X>X>X>X>X>X>X>X>X>X",
">X>X>X>X>X>X>X>X>X>X>X>X>X>X>X>X>X>X>X>X>X>X>X>X>X>X>X>X>X>X>X>X>X>X>X>X>X>X>X>X>X>X>X>X>X>X>X>X>X>X",
">X>X>X>X>X>X>X>X>X>X>X>X>X>X>X>X>X>X>X>X>X>XV , F C V >X>X>X>X>X>X>X>X>X>X>X>X>X>X>X>X>X>X>X>X>X>X>X",
">X>X>X>X>X>X>X>X>X>X>X>X>X>X>X>X>X>Xo o o , C F g.g.H G A B < >X>X>X>X>X>X>X>X>X>X>X>X>X>X>X>X>X>X>X",
">X>X>X>X>X>X>X>X>X>X>X>X>X>X>X>Xo > V S > = F h.c.k.L j.z.L H B >X>X>X>X>X>X>X>X>X>X>X>X>X>X>X>X>X>X",
">X>X>X>X>X>X>X>X>X>X>X>X>X>X>X>Xo = V H K L K g.c.k.k.c.L A B S > >X>X>X>X>X>X>X>X>X>X>X>X>X>X>X>X>X",
">X>X>X>X>X>X>X>X>X>X>X>X>X>X>X>Xo , H j.l.c.j.L j.g.x.k.C K h.L V o >X>X>X>X>X>X>X>X>X>X>X>X>X>X>X>X",
">X>X>X>X>X>X>X>X>X>X>X>X>X>X>X* , K k.g.J j.x.z.x.z.x.l.S F g.k.K > * >X>X>X>X>X>X>X>X>X>X>X>X>X>X>X",
">X>X>X>X>X>X>X>X>X>X>X>X>X>X>X> H L G 1 H k.L h.c.k.K j.j.C V H L C , >X>X>X>X>X>X>X>X>X>X>X>X>X>X>X",
">X>X>X>X>X>X>X>X>X>X>X>X>X>Xm C H S , V h.S V V k.c.H C j.L - V H V F m >X>X>X>X>X>X>X>X>X>X>X>X>X>X",
">X>X>X>X>X>X>X>X>X>X>X>X>X>X, V - - B H < - < H k.z.H > B K A - , > m S > >X>X>X>X>X>X>X>X>X>X>X>X>X",
">X>X>X>X>X>X>X>X>X>X>X>X>X>X- > B B C , > V V H L L g.C , V K < o - > m > >X>X>X>X>X>X>X>X>X>X>X>X>X",
">X>X>X>X>X>X>X>X>X>X>X>X>X>X>X< B , - > C 7 B K C G k.V A , B V * - > > = >X>X>X>X>X>X>X>X>X>X>X>X>X",
">X>X>X>X>X>X>X>X>X>X>X>X>X>X>X> @.Z - m , * C H , A L 1 C C , , > o.+.* >X>X>X>X>X>X>X>X>X>X>X>X>X>X",
">X>X>X>X>X>X>X>X>X>X>X>X>X>X>XO /.(.D = > > , m * V S - B G C * o.[.Q.>X>X>X>X>X>X>X>X>X>X>X>X>X>X>X",
">X>X>X>X>X>X>X>X>X>X>X>X>X>X>X% !.&Xo.* m < * = o , , > - > V , :.&XH.>X>X>X>X>X>X>X>X>X>X>X>X>X>X>X",
">X>X>X>X>X>X>X>X>X>X>X>X>X>X>X>X) @X .T.< , o - > * > m * o - Z _.OX/ >X>X>X>X>X>X>X>X>X>X>X>X>X>X>X",
">X>X>X>X>X>X>X>X>X>X>X>X>X>X>X>X>X[ $.'.(.1 < > > - m m = B _.).b.b >X>X>X>X>X>X>X>X>X>X>X>X>X>X>X>X",
">X>X>X>X>X>X>X>X>X>X>X>X>X>X>X>X>X>Xf Y.`.+.Y.Z > , m B E o.'.I.w >X>X>X>X>X>X>X>X>X>X>X>X>X>X>X>X>X",
">X>X>X>X>X>X>X>X>X>X>X>X>X>X>X& @ O + @.~.'.{.U.E Z t Y.}.`.~.O.O # $   >X>X>X>X>X>X>X>X>X>X>X>X>X>X",
">X>X>X>X>X>X>X>X>X>X>X>X>X>X@ 2.t.g U R O.m.{.{.{.T.^.$X{.x.O.5 I { i.h @ >X>X>X>X>X>X>X>X>X>X>X>X>X",
">X>X>X>X>X>X>X>X>X>X>X>X>X>Xn d.oX..=.-.R X.T.I.P.P.U.U.J.Y u U U { XXd.% >X>X>X>X>X>X>X>X>X>X>X>X>X",
">X>X>X>X>X>X>X>X>X>X>X>X>X$ 9..XXX..v.v.M.;.Y 4 4 4 4 4 4 U U &.Q ..XX.X| O >X>X>X>X>X>X>X>X>X>X>X>X",
">X>X>X>X>X>X>X>X>X>X>X>X>Xh p.d.E.^ v.^.K.V.;.Q ! I U U U Q &.-.+.<.E.E.8.@ >X>X>X>X>X>X>X>X>X>X>X>X",
">X>X>X>X>X>X>X>X>X>X>X>X>Xh p.9.8.l -.Z.^.^.V.M.=.&.&.&.&.-.M.-.U ( 9.i.t.% >X>X>X>X>X>X>X>X>X>X>X>X",
">X>X>X>X>X>X>X>X>X>X>X>Xq <.9.t.<.p &.V.Z.^.K.B.N.N.N.N.N.N.;.*.P 8 <.8.a.>.. >X>X>X>X>X>X>X>X>X>X>X",
">X>X>X>X>X>X>X>X>X>X>X>X% u.a.8.z 2 U -.v.Z.Z.^.K.V.V.V.n.;.*.! N : h r.9.8.$ >X>X>X>X>X>X>X>X>X>X>X",
">X>X>X>X>X>X>X>X>X>X>X>X@ a. Xs >X3 5 ! *.-.M.C.V.V.v.;.=.! ! P u 2 >X1.f.s.% >X>X>X>X>X>X>X>X>X>X>X",
">X>X>X>X>X>X>X>X>X>X>X>Xh oXE.z >X9 >.T P ! *.-.-.*.*.! U U 5 T | 9 >Xn E.d.% >X>X>X>X>X>X>X>X>X>X>X",
">X>X>X>X>X>X>X>X>X>X>X>Xh d.8.[ w . x 4.2.T T _ _ _ _ _ T T 4.4.s @ e 3.9.r.% >X>X>X>X>X>X>X>X>X>X>X",
">X>X>X>X>X>X>X>X>X>X>X>X8 ..>./.A.O $ v 5.5.5.4.4.4.4.4.4.4.4.c $ : J.Q.>.[ # >X>X>X>X>X>X>X>X>X>X>X",
">X>X>X>X>X>X>X>X>X>X>X>X .#X;X-X[.r # 0 h c c v c c c c c x x % 8 ~ ].=X:X$X` >X>X>X>X>X>X>X>X>X>X>X",
">X>X>X>X>X>X>X>X>X>X>X>X) [.=X-X*X[ : 5 9 9 9 9 9 9 9 9 9 9 9 u 3 e.*X=X=X[.( >X>X>X>X>X>X>X>X>X>X>X",
">X>X>X>X>X>X>X>X>X>X>X>Xi A.&X&X}.) 2 I P W W W W W W W W W U I 3 #.+X*X#XF.g >X>X>X>X>X>X>X>X>X>X>X",
">X>X>X>X>X>X>X>X>X>X>X>X>X) 0.e.X.t 3 u U +.=.=.=.-.=.-.=.Q I u 3 t ] e.0.z >X>X>X>X>X>X>X>X>X>X>X>X",
">X>X>X>X>X>X>X>X>X>X>X>X>X>X>X>X>XO [ i 4 u Y Y Y Y Y Y Y t r i z O >X>X>X>X>X>X>X>X>X>X>X>X>X>X>X>X",
">X>X>X>X>X>X>X>X>X>X>X>X>X>X>X>X>XX 8.t.R.} t.1.r.7.,.y.<.y.7.i.s   >X>X>X>X>X>X>X>X>X>X>X>X>X>X>X>X",
">X>X>X>X>X>X>X>X>X>X>X>X>X>X>X>X>X, & 1.p.t.p.u.r.r.t.p.7.p.9.3.X >X>X>X>X>X>X>X>X>X>X>X>X>X>X>X>X>X",
">X>X>X>X>X>X>X>X>X>X>X>X>X>X>X>X>X>Xq @ % a.1.u.6.1.9.6.p.>.@ O < >X>X>X>X>X>X>X>X>X>X>X>X>X>X>X>X>X",
">X>X>X>X>X>X>X>X>X>X>X>X>X>X>X>X>Xd l w d f f 0 X . . 0 k f d w l d >X>X>X>X>X>X>X>X>X>X>X>X>X>X>X>X",
">X>X>X>X>X>X>X>X>X>X>X>X>X>X>X>Xs l l p #.#.) a >X>X>Xd ` #. .p z l a >X>X>X>X>X>X>X>X>X>X>X>X>X>X>X",
">X>X>X>X>X>X>X>X>X>X>X>X>X>X>X>Xq p p #.S.w.z q >X>X>Xd / w.S. .p w d >X>X>X>X>X>X>X>X>X>X>X>X>X>X>X",
">X>X>X>X>X>X>X>X>X>X>X>X>X>X>X>Xd 0 p A.H.q.0 d >X>X>Xd e e.D.q.p e q >X>X>X>X>X>X>X>X>X>X>X>X>X>X>X",
">X>X>X>X>X>X>X>X>X>X>X>X>X>X>X>X>Xq ( :.A.` w d >X>X>Xa p ` S.:.^ q >X>X>X>X>X>X>X>X>X>X>X>X>X>X>X>X",
">X>X>X>X>X>X>X>X>X>X>X>X>X>X>X>X>X>Xf k z 0 d >X>X>X>X>Xd w [ k k >X>X>X>X>X>X>X>X>X>X>X>X>X>X>X>X>X",
">X>X>X>X>X>X>X>X>X>X>X>X>X>X>X>X>X>X>X>X>X>X>X>X>X>X>X>X>X>X>X>X>X>X>X>X>X>X>X>X>X>X>X>X>X>X>X>X>X>X",
">X>X>X>X>X>X>X>X>X>X>X>X>X>X>X>X>X>X>X>X>X>X>X>X>X>X>X>X>X>X>X>X>X>X>X>X>X>X>X>X>X>X>X>X>X>X>X>X>X>X",
">X>X>X>X>X>X>X>X>X>X>X>X>X>X>X>X>X>X>X>X>X>X>X>X>X>X>X>X>X>X>X>X>X>X>X>X>X>X>X>X>X>X>X>X>X>X>X>X>X>X"
};
