/* XPM */
static char *result[] = {
/* columns rows colors chars-per-pixel */
"50 50 30 1 ",
"  c #271A15",
". c #291B16",
"X c #301C1B",
"o c #371E20",
"O c #391F21",
"+ c #3D2022",
"@ c #42231E",
"# c #412323",
"$ c #4B2524",
"% c #572A26",
"& c #592B27",
"* c #5D2C28",
"= c #583125",
"- c #622F29",
"; c #61332B",
": c #67332B",
"> c #733A2F",
", c #6B402D",
"< c #73442F",
"1 c #744333",
"2 c #7C4735",
"3 c #854535",
"4 c #864535",
"5 c #884735",
"6 c #8A4836",
"7 c #865B3F",
"8 c #8F5D45",
"9 c #A45B40",
"0 c #BF6F4A",
"q c #E69C69",
/* pixels */
"                                                  ",
"0000000000000000O  :0000000000000000000q 000000000",
"66666666666666660q -66666666666666666660 666666666",
"666666666666666660 -66666666666666666660 666666666",
"666666666666666660 -66666666666666666660 666666666",
"6666666666-6666660 -666666-3336666666660 666666666",
"6666666666*6666660 -66****66666666666660 666666666",
"66666666666**66660 +**6666*6666666666660 666666666",
"666663666**OO*6660 #66666666666666666660 666366666",
"6666666**O   O*6*O -66666666666666666660 **6-66666",
"666666*OOO    O*O  -66666666666666666>*O OO*666666",
"******OOOOO    O   +*****************$O    O******",
"     122;$$OXX@<<<=<<<<<<<<X  ,<<<<<<<<<<<<<<<<<<<",
"OOOO %6606*O$*6666*66666666qOO%6666666666666666666",
"***OO%666***>6666*6666666660qq%6666666666666666666",
"****O%6666*6>6666*666666666600%6666666666666666666",
"****O%6666666666*6666666666660%666*666666666666666",
"****O%66666666666*666666666660%6666*6666*6*6666666",
"****O%66666666666*666666666660%66666*66*6*66666666",
"****O%666666666-66666666666360%66666-5*666-3666666",
"****O%6666666666666666666666*6%666666>666666666666",
"****O%666666666666666666666660%666666>666666666666",
"****O%666666666666666666666660%666666>666666666666",
"****O O**666666666666OO6666660oO*666*6666666666666",
"*****. OO***********O  *******  O***O*************",
"*****+                                            ",
"0000000000600000qO 0000000000000000008   000000000",
"666666666666666660 -666666666666666669qO 666666666",
"6666666**666666660 -666666666666666669qO 666666666",
"666666*66666666660 -6666666666666666660q 6666666**",
"6666-3-66666666660 -6666*666666666666660 6664-++OO",
"666*66*66666666660 -666*6666666666666660 6666***OO",
"66*6666*6666666660 -666*6666663666666660 6666666**",
"6*6666666666666660 -6666666666-666666660 666666666",
"6666666666666666*O -6666666666666*666660 666666666",
"6666666666666666O  +6666666666666666666O 666666666",
"****************O  .*******************O *********",
"      X<<<@<<<<<<<<<<<<<<<<<7X X<<<<<<<<<<<<<<<<<<",
"OOOO  O*666*66666666666666660qo6666666666666666666",
"006*Oo*6666*666666666666666660%6666666666666666666",
"6606O%666666>66666666666666660%6666666666666666666",
"6660O%66666*6666666666*6666660%66666666666666666*6",
"66660%666666>66666666*66666660%666666666666666666*",
"66660%66666*666666666*66666660%666*666666666666666",
"66660%6663&&>6666666-666666660%666-366666666666666",
"66660%6666*O$66666666666666660%66666*6666666666666",
"66660%666*6*$66666666666666660o***6666666666666666",
"66660%666666>*6666666666666660 O*66666666666666666",
"*****o****O*******************  O*****************",
"                                                  "
};
